<svg xmlns="http://www.w3.org/2000/svg" width="450.054" height="186.868" viewBox="0 0 450.054 186.868">
  <g id="Group_9960" data-name="Group 9960" transform="translate(-5.607 -71.245)">
    <ellipse id="Ellipse_979" data-name="Ellipse 979" cx="225.027" cy="14.897" rx="225.027" ry="14.897" transform="translate(5.607 228.318)" fill="#f5f7fb"/>
    <path id="Path_15033" data-name="Path 15033" d="M498.815,324.894c-36.663,0-62.987,23.522-62.987,78.407,0,62.2,26.324,78.668,62.987,78.668S563.37,463.935,563.37,403.3C563.37,338.485,535.478,324.894,498.815,324.894Zm.241,136.428c-25.394,0-38.66-14.9-38.66-57.981,0-38.014,13.81-58.061,39.2-58.061s39.2,13.168,39.2,58.061C538.8,445.338,524.45,461.322,499.056,461.322Z" transform="translate(-271.317 -253.649)" fill="#2f2e41"/>
    <path id="Path_15034" data-name="Path 15034" d="M231.548,446.88H216.389V402.242a8.94,8.94,0,0,0-8.94-8.94H203.9a8.94,8.94,0,0,0-8.94,8.94V446.88H152.2a5.1,5.1,0,0,1-4.512-7.488l45.254-85.651a8.94,8.94,0,0,0-4.087-12.26l-2.671-1.262a8.94,8.94,0,0,0-11.7,3.869L119.29,447.338a12.122,12.122,0,0,0-1.432,5.715h0a12.122,12.122,0,0,0,12.122,12.122h64.978V493.4a10.716,10.716,0,0,0,10.716,10.716h0A10.716,10.716,0,0,0,216.389,493.4V465.175h15.159a9.147,9.147,0,0,0,9.147-9.147h0a9.147,9.147,0,0,0-9.147-9.147Z" transform="translate(-88.99 -261.945)" fill="#6135fb"/>
    <path id="Path_15035" data-name="Path 15035" d="M889.544,446.88H874.386V402.242a8.94,8.94,0,0,0-8.94-8.94h-3.552a8.94,8.94,0,0,0-8.94,8.94V446.88H810.2a5.1,5.1,0,0,1-4.512-7.488l45.254-85.651a8.94,8.94,0,0,0-4.087-12.26l-2.671-1.262a8.94,8.94,0,0,0-11.7,3.869L777.286,447.338a12.122,12.122,0,0,0-1.432,5.715h0a12.122,12.122,0,0,0,12.122,12.122h64.978V493.4a10.716,10.716,0,0,0,10.716,10.716h0A10.716,10.716,0,0,0,874.386,493.4V465.175h15.159a9.147,9.147,0,0,0,9.148-9.147h0a9.147,9.147,0,0,0-9.148-9.147Z" transform="translate(-466.291 -261.945)" fill="#6135fb"/>
  </g>
</svg>
