<svg xmlns="http://www.w3.org/2000/svg" width="24" height="24" viewBox="0 0 24 24">
  <g id="Group_10554" data-name="Group 10554" transform="translate(-4294 24479)">
    <rect id="Rectangle_6830" data-name="Rectangle 6830" width="24" height="24" transform="translate(4294 -24479)" fill="rgba(255,255,255,0)"/>
    <path id="Path_15406" data-name="Path 15406" d="M8132,18081a1,1,0,0,1-1-1v-16a1,1,0,0,1,2,0v15h15a1,1,0,0,1,0,2Zm11.367-5.5v-2.5a1,1,0,0,1,2,0v2.5a1,1,0,1,1-2,0Zm-4,0v-7.5a1,1,0,0,1,2,0v7.5a1,1,0,1,1-2,0Zm-4,0V18071a1,1,0,1,1,2,0v4.494a1,1,0,1,1-2,0Z" transform="translate(-3834 -42539.008)" fill="#6135fb"/>
  </g>
</svg>
