<svg xmlns="http://www.w3.org/2000/svg" width="24" height="24" viewBox="0 0 24 24">
  <g id="Group_911" data-name="Group 911" transform="translate(-91.292 -556)">
    <rect id="Rectangle_951" data-name="Rectangle 951" width="24" height="24" transform="translate(91.292 556)" fill="#fff" opacity="0"/>
    <g id="Group_911-2" data-name="Group 911" transform="translate(419.519 -842.325)">
      <path id="Union_6" data-name="Union 6" d="M-2523.743-7656.619a5.159,5.159,0,0,1-.055-7.287.4.4,0,0,1,.569,0,.4.4,0,0,1,0,.569,4.354,4.354,0,0,0,.048,6.148,4.352,4.352,0,0,0,6.148.046l11.3-11.3a.373.373,0,0,1,.056-.045.376.376,0,0,1,.047-.058,4.352,4.352,0,0,0-.048-6.148,4.352,4.352,0,0,0-6.146-.046l-8.39,8.39a.4.4,0,0,1-.569,0,.406.406,0,0,1-.006-.571l8.39-8.39a5.159,5.159,0,0,1,7.287.057,5.155,5.155,0,0,1,.055,7.285.4.4,0,0,1-.054.046.369.369,0,0,1-.049.059l-11.3,11.3a5.057,5.057,0,0,1-3.593,1.479A5.215,5.215,0,0,1-2523.743-7656.619Z" transform="translate(2198.051 9076.116)" fill="#6135fb" stroke="#6135FB" stroke-linecap="round" stroke-linejoin="round" stroke-width="1"/>
    </g>
  </g>
</svg>
