<svg xmlns="http://www.w3.org/2000/svg" width="23.706" height="23.7" viewBox="0 0 23.706 23.7">
  <g id="Group_7522" data-name="Group 7522" transform="translate(3892.209 -3124.769)">
    <path id="Path_12109" data-name="Path 12109" d="M-3891.859,3146.231V3133.25c.008-.012.022-.024.023-.037a2.112,2.112,0,0,1,2.246-1.819c.455.019.912.013,1.368,0a1.023,1.023,0,0,0,.461-.121c2.309-1.335,4.6-2.7,6.921-4.014a27.808,27.808,0,0,1,3.894-2.137h.539a2.549,2.549,0,0,1,1.848,1.506c.852,1.545,1.748,3.066,2.619,4.6a.4.4,0,0,0,.328.226,1.876,1.876,0,0,1,.944.436,2.113,2.113,0,0,1,.765,1.722c0,.966,0,1.931,0,2.9a.273.273,0,0,0,.171.293,1.473,1.473,0,0,1,.868,1.364q.025,1.595,0,3.189a1.482,1.482,0,0,1-.872,1.362.255.255,0,0,0-.166.271q.008,1.449,0,2.9a2.25,2.25,0,0,1-.215,1.044,2.081,2.081,0,0,1-1.98,1.189q-3.784.006-7.569,0-4.986,0-9.972,0a2.139,2.139,0,0,1-1.811-.861A2.441,2.441,0,0,1-3891.859,3146.231Zm20.894-3.337h-.3c-1.04-.007-2.083.031-3.12-.032a3.111,3.111,0,0,1-2.75-3.8,3.125,3.125,0,0,1,3.071-2.441c.95-.009,1.9,0,2.852,0h.249c.007-.058.015-.094.015-.13,0-.988.01-1.976,0-2.964a1.037,1.037,0,0,0-1.156-1.085h-17.538a1.545,1.545,0,0,0-.356.032,1.069,1.069,0,0,0-.81,1.165q0,5.457,0,10.914,0,.7,0,1.392a.983.983,0,0,0,.469.937,1.686,1.686,0,0,0,.766.19q8.7.015,17.4.007a2.147,2.147,0,0,0,.269-.012.985.985,0,0,0,.938-.923C-3870.951,3145.072-3870.966,3144-3870.966,3142.894Zm-1.411-1.065v.014h1.8c.488,0,.678-.19.678-.679q0-1.4,0-2.806c0-.5-.193-.7-.688-.7-1.123,0-2.246-.008-3.368.005a3.021,3.021,0,0,0-.771.116,2.085,2.085,0,0,0-1.419,2.313,2.09,2.09,0,0,0,1.885,1.728C-3873.635,3141.853-3873.005,3141.829-3872.376,3141.829Zm-3.374-15.143a1.013,1.013,0,0,0-1.46-.343q-4.237,2.462-8.47,4.931c-.041.024,6.262-.052,6.172.014.634,0,2.241-1.313,4.8-2.8A19.617,19.617,0,0,0-3875.75,3126.686Zm-1.821,4.707c.587,0-2.9.009-2.314,0a.82.82,0,0,0,.377-.1q2.31-1.334,4.612-2.681c.062-.036.12-.078.188-.122-.174-.3.7,1.22.525.916Zm3.387-1.992-3.387,1.976h4.516Z" transform="translate(0 0)" fill="#6135fb" stroke="#6135fb" stroke-width="0.7"/>
    <path id="Path_12110" data-name="Path 12110" d="M-3617.69,3347.12a1.045,1.045,0,0,1,1.05,1.034,1.051,1.051,0,0,1-1.04,1.047,1.048,1.048,0,0,1-1.048-1.037A1.041,1.041,0,0,1-3617.69,3347.12Z" transform="translate(-256.401 -208.404)" fill="#6135fb" stroke="#6135fb" stroke-width="0.5"/>
  </g>
</svg>
