<svg xmlns="http://www.w3.org/2000/svg" width="19.4" height="24.25" viewBox="0 0 19.4 24.25">
  <g id="Icon_feather-book" data-name="Icon feather-book" transform="translate(-6 -3)">
    <path id="Path_456" data-name="Path 456" d="M6,27.328A1.891,1.891,0,0,1,7.948,25.5H23.831" transform="translate(1.012 -3.198)" fill="none" stroke="#6135FB" stroke-linejoin="round" stroke-width="2"/>
    <g id="Path_457" data-name="Path 457" transform="translate(0 0)" fill="none" stroke-linecap="round" stroke-linejoin="round">
      <path d="M9.031,3H25.4V27.25H9.031A3.031,3.031,0,0,1,6,24.219V6.031A3.031,3.031,0,0,1,9.031,3Z" stroke="none"/>
      <path d="M 9.031248092651367 5 C 8.462619781494141 5 7.999998092651367 5.462619781494141 7.999998092651367 6.03125 L 7.999998092651367 24.21875 C 7.999998092651367 24.78738021850586 8.462619781494141 25.25 9.031248092651367 25.25 L 23.39999771118164 25.25 L 23.39999771118164 5 L 9.031248092651367 5 M 9.031248092651367 3 L 25.39999771118164 3 L 25.39999771118164 27.25 L 9.031248092651367 27.25 C 7.357139587402344 27.25 5.999998092651367 25.89286041259766 5.999998092651367 24.21875 L 5.999998092651367 6.03125 C 5.999998092651367 4.357139587402344 7.357139587402344 3 9.031248092651367 3 Z" stroke="none" fill="#6135FB"/>
    </g>
  </g>
</svg>
