<svg xmlns="http://www.w3.org/2000/svg" width="24" height="24" viewBox="0 0 24 24">
  <g id="Branches_Management" data-name="Branches Management" transform="translate(-579 -176)">
    <rect id="Rectangle_6862" data-name="Rectangle 6862" width="24" height="24" transform="translate(579 176)" fill="rgba(255,255,255,0)"/>
    <path id="Path_15421" data-name="Path 15421" d="M-1468.3,24674h-9.7v-16.49a1.575,1.575,0,0,1,1.629-1.512h8.533a1.578,1.578,0,0,1,1.635,1.512v4.291h4.651a1.523,1.523,0,0,1,1.532,1.207h-8.047v-5.27h-8.069v14.516h1.963v-1.455a.6.6,0,0,1,.619-.576h2.9a.6.6,0,0,1,.619.576v1.455h1.734V24674Zm-1.629-4.65h-.619a.6.6,0,0,1-.619-.582v-.576a.6.6,0,0,1,.619-.582h.619a.6.6,0,0,1,.619.582v.576A.6.6,0,0,1-1469.93,24669.352Zm-3.722,0h-.619a.6.6,0,0,1-.619-.582v-.576a.6.6,0,0,1,.619-.582h.619a.6.6,0,0,1,.619.582v.576A.6.6,0,0,1-1473.652,24669.352Zm3.722-2.322h-.619a.6.6,0,0,1-.619-.582v-.582a.6.6,0,0,1,.619-.576h.619a.6.6,0,0,1,.619.576v.582A.6.6,0,0,1-1469.93,24667.029Zm-3.722,0h-.619a.6.6,0,0,1-.619-.582v-.582a.6.6,0,0,1,.619-.576h.619a.6.6,0,0,1,.619.576v.582A.6.6,0,0,1-1473.652,24667.029Zm1.864-2.9h-.625a.6.6,0,0,1-.619-.582v-1.158h-1.238a.6.6,0,0,1-.619-.582v-.582a.6.6,0,0,1,.619-.576h1.238v-1.164a.6.6,0,0,1,.619-.582h.625a.6.6,0,0,1,.619.582v1.164h1.239a.6.6,0,0,1,.619.576v.582a.6.6,0,0,1-.619.582h-1.239v1.158A.6.6,0,0,1-1471.788,24664.125Z" transform="translate(2060 -24476.998)" fill="#222b45"/>
    <path id="Path_15420" data-name="Path 15420" d="M20.75,16a4.338,4.338,0,0,0-.06-.63l1.14-1.01-1-1.73-1.45.49a3.647,3.647,0,0,0-1.08-.63L18,11H16l-.3,1.49a3.647,3.647,0,0,0-1.08.63l-1.45-.49-1,1.73,1.14,1.01a4.338,4.338,0,0,0-.06.63,4.338,4.338,0,0,0,.06.63l-1.14,1.01,1,1.73,1.45-.49a3.647,3.647,0,0,0,1.08.63L16,21h2l.3-1.49a3.647,3.647,0,0,0,1.08-.63l1.45.49,1-1.73-1.14-1.01A4.338,4.338,0,0,0,20.75,16ZM17,18a2,2,0,1,1,2-2A2.006,2.006,0,0,1,17,18Z" transform="translate(580 176)" fill="#222b45"/>
  </g>
</svg>
