<svg xmlns="http://www.w3.org/2000/svg" width="15.924" height="18.199" viewBox="0 0 15.924 18.199">
  <path id="Icon_awesome-building" data-name="Icon awesome-building" d="M15.5,17.062h-.711V.853A.853.853,0,0,0,13.934,0H1.991a.853.853,0,0,0-.853.853V17.062H.427A.427.427,0,0,0,0,17.488V18.2H15.924v-.711A.427.427,0,0,0,15.5,17.062ZM4.55,2.7a.427.427,0,0,1,.427-.427H6.4a.427.427,0,0,1,.427.427V4.123A.427.427,0,0,1,6.4,4.55H4.976a.427.427,0,0,1-.427-.427Zm0,3.412a.427.427,0,0,1,.427-.427H6.4a.427.427,0,0,1,.427.427V7.536a.427.427,0,0,1-.427.427H4.976a.427.427,0,0,1-.427-.427ZM6.4,11.374H4.976a.427.427,0,0,1-.427-.427V9.526A.427.427,0,0,1,4.976,9.1H6.4a.427.427,0,0,1,.427.427v1.422A.427.427,0,0,1,6.4,11.374Zm2.7,5.687H6.825V14.076a.427.427,0,0,1,.427-.427H8.673a.427.427,0,0,1,.427.427Zm2.275-6.114a.427.427,0,0,1-.427.427H9.526a.427.427,0,0,1-.427-.427V9.526A.427.427,0,0,1,9.526,9.1h1.422a.427.427,0,0,1,.427.427Zm0-3.412a.427.427,0,0,1-.427.427H9.526A.427.427,0,0,1,9.1,7.536V6.114a.427.427,0,0,1,.427-.427h1.422a.427.427,0,0,1,.427.427Zm0-3.412a.427.427,0,0,1-.427.427H9.526A.427.427,0,0,1,9.1,4.123V2.7a.427.427,0,0,1,.427-.427h1.422a.427.427,0,0,1,.427.427Z" fill="#636b80"/>
</svg>
