<svg xmlns="http://www.w3.org/2000/svg" width="21.999" height="21.999" viewBox="0 0 21.999 21.999">
    <defs>
        <style>
            .a,.b{fill:none;}.a{stroke:#222b45;stroke-linecap:round;stroke-linejoin:round;stroke-width:2px;}.b{stroke-miterlimit:10;}.c,.d{stroke:none;}.d{fill:#222b45;}
        </style>
    </defs>
    <g transform="translate(24.499 -2.5) rotate(90)">
        <g transform="translate(0 27) rotate(-90)">
            <path class="a" d="M12.375,15.674l3.75-3.721,3.75,3.72" transform="translate(-2.625 -2.484)"/>
            <path class="a" d="M18,12.729v7.545" transform="translate(-4.5 -2.743)"/>
        </g>
        <g class="b">
            <path class="c" d="M22.5,13.5a9,9,0,1,0-9,9A9,9,0,0,0,22.5,13.5Z"/>
            <path class="d"
                  d="M 13.49951171875 22.49902153015137 C 18.46791076660156 22.49902153015137 22.49902153015137 18.46791076660156 22.49902153015137 13.49951171875 C 22.49902153015137 8.531111717224121 18.46791076660156 4.500001907348633 13.49951171875 4.500001907348633 C 8.531111717224121 4.500001907348633 4.500001907348633 8.531111717224121 4.500001907348633 13.49951171875 C 4.500001907348633 18.46791076660156 8.531111717224121 22.49902153015137 13.49951171875 22.49902153015137 M 13.49951171875 24.49902153015137 C 7.434361934661865 24.49902153015137 2.500001668930054 19.56466102600098 2.500001668930054 13.49951171875 C 2.500001668930054 7.434361934661865 7.434361934661865 2.500001668930054 13.49951171875 2.500001668930054 C 19.56466102600098 2.500001668930054 24.49902153015137 7.434361934661865 24.49902153015137 13.49951171875 C 24.49902153015137 19.56466102600098 19.56466102600098 24.49902153015137 13.49951171875 24.49902153015137 Z"/>
        </g>
    </g>
</svg>
