<svg xmlns="http://www.w3.org/2000/svg" width="24" height="24" viewBox="0 0 24 24">
  <g id="Dashboard" transform="translate(-56 -226)">
    <rect id="Rectangle_6837" data-name="Rectangle 6837" width="24" height="24" transform="translate(56 226)" fill="rgba(255,255,255,0)"/>
    <path id="Path_15140" data-name="Path 15140" d="M8132,18081a1,1,0,0,1-1-1v-16a1,1,0,0,1,2,0v15h15a1,1,0,0,1,0,2Zm11.367-5.5v-2.5a1,1,0,0,1,2,0v2.5a1,1,0,1,1-2,0Zm-4,0v-7.5a1,1,0,0,1,2,0v7.5a1,1,0,1,1-2,0Zm-4,0V18071a1,1,0,1,1,2,0v4.494a1,1,0,1,1-2,0Z" transform="translate(-8071 -17834.008)" fill="#222b45"/>
  </g>
</svg>
