<svg xmlns="http://www.w3.org/2000/svg" width="25.407" height="25.407" viewBox="0 0 25.407 25.407">
  <g id="Group_7847" data-name="Group 7847" transform="translate(4349.486 -3408.986)">
    <path id="Path_12112" data-name="Path 12112" d="M-4336.782,3408.986a12.71,12.71,0,0,1,12.7,12.717,12.71,12.71,0,0,1-12.729,12.69,12.71,12.71,0,0,1-12.678-12.692A12.71,12.71,0,0,1-4336.782,3408.986Zm-11.115,12.7a11.12,11.12,0,0,0,11.1,11.116,11.119,11.119,0,0,0,11.128-11.086,11.119,11.119,0,0,0-11.123-11.141A11.12,11.12,0,0,0-4347.9,3421.687Z" transform="translate(0 0)" fill="#222b45"/>
    <path id="Path_12113" data-name="Path 12113" d="M-4271.484,3482.213v-1.066q0-3.6,0-7.194c0-.582.315-.936.8-.932s.778.358.79.943c0,.116,0,.232,0,.347v7.866c.189-.174.309-.276.42-.387.924-.923,1.844-1.852,2.773-2.769a.8.8,0,0,1,1.189-.082.786.786,0,0,1-.05,1.187q-2.164,2.185-4.349,4.351a1.116,1.116,0,0,1-1.563-.007q-2.167-2.148-4.315-4.315a.8.8,0,0,1-.071-1.224.8.8,0,0,1,1.189.1C-4273.636,3480.052-4272.612,3481.085-4271.484,3482.213Z" transform="translate(-66.093 -57.68)" fill="#222b45"/>
  </g>
</svg>
