<svg xmlns="http://www.w3.org/2000/svg" width="18.4" height="18.401" viewBox="0 0 18.4 18.401">
  <g id="cloud-download" transform="translate(0.2 0.2)">
    <path id="Path_15041" data-name="Path 15041" d="M4.957,1.51A6.221,6.221,0,0,1,9,0a5.778,5.778,0,0,1,5.812,5.152A3.662,3.662,0,0,1,18,8.745a3.68,3.68,0,0,1-3.727,3.63H11.25a.563.563,0,0,1,0-1.125h3.024a2.555,2.555,0,0,0,2.6-2.505,2.555,2.555,0,0,0-2.6-2.507H13.71V5.676A4.631,4.631,0,0,0,9,1.125,5.1,5.1,0,0,0,5.692,2.362a3.326,3.326,0,0,0-1.3,2.312v.5l-.5.055a3.059,3.059,0,0,0-2.769,3A3.074,3.074,0,0,0,4.253,11.25h2.5a.563.563,0,0,1,0,1.125h-2.5A4.2,4.2,0,0,1,0,8.233,4.17,4.17,0,0,1,3.31,4.191,4.733,4.733,0,0,1,4.957,1.51Z" fill="#fff" stroke="#fff" stroke-width="0.4" fill-rule="evenodd"/>
    <path id="Path_15042" data-name="Path 15042" d="M13.663,23.461a.562.562,0,0,0,.8,0l3.375-3.375a.563.563,0,1,0-.8-.8L14.624,21.7V11.813a.562.562,0,0,0-1.125,0V21.7l-2.415-2.416a.563.563,0,0,0-.8.8Z" transform="translate(-5.062 -5.625)" fill="#fff" stroke="#fff" stroke-width="0.4" fill-rule="evenodd"/>
  </g>
</svg>
