<svg xmlns="http://www.w3.org/2000/svg" width="15.225" height="19.982" viewBox="0 0 15.225 19.982">
  <g id="Group_10101" data-name="Group 10101" transform="translate(1.032 -31.999)">
    <g id="Path_12097" data-name="Path 12097" transform="translate(-1.032 31.999)" fill="#fff">
      <path d="M 13.32161140441895 18.982421875 L 1.903091430664062 18.982421875 C 1.405121445655823 18.982421875 1.000001430511475 18.57730102539062 1.000001430511475 18.07933044433594 L 1.000001430511475 1.903090953826904 C 1.000001430511475 1.405120968818665 1.405121445655823 1.000000953674316 1.903091430664062 1.000000953674316 L 8.860321044921875 1.000000953674316 C 12.52013111114502 1.000000953674316 14.22470188140869 2.60624098777771 14.22470188140869 6.054940700531006 L 14.22470188140869 18.07933044433594 C 14.22470188140869 18.57730102539062 13.81958103179932 18.982421875 13.32161140441895 18.982421875 Z" stroke="none"/>
      <path d="M 2.000000953674316 2 L 2.000000953674316 17.982421875 L 13.22470092773438 17.982421875 L 13.22470092773438 6.054941177368164 C 13.22470092773438 4.683390617370605 12.91792106628418 3.670860290527344 12.31289100646973 3.045490264892578 C 11.64173126220703 2.351751327514648 10.48011207580566 2 8.860321044921875 2 L 2.000000953674316 2 M 1.903091430664062 0 L 8.860321044921875 0 C 13.4144115447998 0 15.22470188140869 2.394611358642578 15.22470188140869 6.054941177368164 L 15.22470188140869 18.07933044433594 C 15.22470188140869 19.13038063049316 14.37266159057617 19.982421875 13.32161140441895 19.982421875 L 1.903091430664062 19.982421875 C 0.8520412445068359 19.982421875 9.5367431640625e-07 19.13038063049316 9.5367431640625e-07 18.07933044433594 L 9.5367431640625e-07 1.903091430664062 C 9.5367431640625e-07 0.8520412445068359 0.8520412445068359 0 1.903091430664062 0 Z" stroke="none" fill="#3f465d"/>
    </g>
    <path id="Path_14926" data-name="Path 14926" d="M20.762,15.681l-3.02,3a.4.4,0,0,1-.593,0l-3.02-3a.445.445,0,0,1-.042-.572.4.4,0,0,1,.635-.042l2.3,2.3V10.408a.424.424,0,1,1,.847,0v6.959l2.3-2.3a.4.4,0,0,1,.635.042.445.445,0,0,1-.042.572Z" transform="translate(-10.715 28.015)" fill="#6135fb" stroke="#3f465d" stroke-width="1"/>
  </g>
</svg>
