<svg xmlns="http://www.w3.org/2000/svg" width="18.195" height="18.041" viewBox="0 0 18.195 18.041">
  <g id="Layer_2" data-name="Layer 2" transform="translate(0.032 -0.068)">
    <g id="invisible_box" data-name="invisible box" transform="translate(0.068 0.068)">
      <rect id="Rectangle_6089" data-name="Rectangle 6089" width="18.041" height="18.041" fill="none"/>
    </g>
    <g id="icons_Q2" data-name="icons Q2" transform="translate(0.068 4.596)">
      <g id="Group_8100" data-name="Group 8100">
        <path id="Path_12194" data-name="Path 12194" d="M15.526,23.529l-3.279-3.238a.861.861,0,0,1-.082-1.107.779.779,0,0,1,1.23-.082L16.1,21.808l8.444-8.444a.82.82,0,0,1,1.148,1.148l-9.018,9.018a.779.779,0,0,1-1.148,0Z" transform="translate(-7.895 -13.2)" fill="#6135fb" stroke="#6135fb" stroke-width="0.2"/>
        <path id="Path_12195" data-name="Path 12195" d="M6.09,31.91a.82.82,0,0,1-.574-.246L2.237,28.385a.779.779,0,0,1,0-1.148.779.779,0,0,1,1.148,0l3.279,3.279a.779.779,0,0,1,0,1.148.82.82,0,0,1-.574.246Z" transform="translate(-1.985 -21.334)" fill="#6135fb" stroke="#6135fb" stroke-width="0.2"/>
        <path id="Path_12196" data-name="Path 12196" d="M20.811,19.676a.82.82,0,0,1-.574-.246.779.779,0,0,1,0-1.148l4.919-4.919A.82.82,0,0,1,26.3,14.512L21.385,19.43A.82.82,0,0,1,20.811,19.676Z" transform="translate(-12.606 -13.2)" fill="#6135fb" stroke="#6135fb" stroke-width="0.2"/>
      </g>
    </g>
  </g>
</svg>
