<svg xmlns="http://www.w3.org/2000/svg" width="22" height="22" viewBox="0 0 22 22"><defs><style>.a,.d{fill:none;}.a,.b{stroke:#222b45;}.a{stroke-width:2px;}.b{fill:#222b45;}.c{stroke:none;}</style></defs><g transform="translate(-566 -349)"><g transform="translate(568 351)"><g class="a"><rect class="c" width="18" height="18" rx="9"/><rect class="d" x="-1" y="-1" width="20" height="20" rx="10"/></g></g><g transform="translate(568.764 353.889)"><path class="b" d="M4.424,4h7.625a.424.424,0,1,1,0,.847H4.424a.424.424,0,1,1,0-.847Z" transform="translate(0 -2)"/><path class="b" d="M20.762,15.681l-3.02,3a.4.4,0,0,1-.593,0l-3.02-3a.445.445,0,0,1-.042-.572.4.4,0,0,1,.635-.042l2.3,2.3V12.408a.424.424,0,1,1,.847,0v4.959l2.3-2.3a.4.4,0,0,1,.635.042.445.445,0,0,1-.042.572Z" transform="translate(-9.208 -6.588)"/></g></g></svg>