<svg xmlns="http://www.w3.org/2000/svg" width="18.802" height="18.739" viewBox="0 0 18.802 18.739"><defs><style>.a{fill:#6135fb;stroke:#fff;stroke-width:0.5px;}</style></defs><g transform="translate(0.272 0.489)"><path class="a" d="M11.6,19.35a1.015,1.015,0,0,1-.783-.335.9.9,0,0,1-.335-1.006L11.6,13.536c0-.224.112-.335.335-.559L22.56,2.356a3.478,3.478,0,0,1,4.919,4.919L16.858,17.9a2.444,2.444,0,0,1-.559.335L11.827,19.35Zm2.124-5.031-.559,2.348,2.348-.559,10.4-10.4a1.358,1.358,0,0,0,0-1.789,1.36,1.36,0,0,0-1.789,0h0Zm9.615-11.18Z" transform="translate(-10.444 -1.35)"/></g></svg>