<svg xmlns="http://www.w3.org/2000/svg" xmlns:xlink="http://www.w3.org/1999/xlink" width="255.221" height="143.753" viewBox="0 0 255.221 143.753">
  <defs>
    <clipPath id="clip-path">
      <rect width="255.221" height="143.753" fill="none"/>
    </clipPath>
  </defs>
  <g id="Repeat_Grid_1" data-name="Repeat Grid 1" clip-path="url(#clip-path)">
    <g id="Group_10492" data-name="Group 10492" transform="translate(-832.389 -518.457)">
      <path id="Path_3066" data-name="Path 3066" d="M545.479,433.857H313.4a11.506,11.506,0,0,0-5.7,1.5,11.3,11.3,0,0,0-1.2.786,11.551,11.551,0,0,0-4.672,9.283V566.036A11.584,11.584,0,0,0,313.4,577.609H545.479a11.584,11.584,0,0,0,11.573-11.573V445.43A11.584,11.584,0,0,0,545.479,433.857Z" transform="translate(530.559 84.601)" fill="#fff"/>
      <path id="Path_3067" data-name="Path 3067" d="M545.479,433.857H313.4a11.506,11.506,0,0,0-5.7,1.5,11.3,11.3,0,0,0-1.2.786,11.551,11.551,0,0,0-4.672,9.283V566.036A11.584,11.584,0,0,0,313.4,577.609H545.479a11.584,11.584,0,0,0,11.573-11.573V445.43A11.584,11.584,0,0,0,545.479,433.857Zm10.355,132.179a10.37,10.37,0,0,1-10.355,10.355H313.4a10.37,10.37,0,0,1-10.355-10.355V445.43a10.413,10.413,0,0,1,7.175-9.856c.085-.024.164-.055.25-.079a10.355,10.355,0,0,1,2.93-.42H545.479a10.37,10.37,0,0,1,10.355,10.355Z" transform="translate(530.559 84.601)" fill="#3f3d56"/>
      <path id="Path_3068" data-name="Path 3068" d="M409.769,495.943a4.529,4.529,0,0,1-2.187-.564L307.275,440.17a.5.5,0,1,1,.486-.883L408.069,494.5a3.519,3.519,0,0,0,3.347.03L513.374,440.74a.5.5,0,0,1,.47.891L411.886,495.417A4.532,4.532,0,0,1,409.769,495.943Z" transform="translate(550.143 108.421)" fill="#3f3d56"/>
      <path id="Path_3069" data-name="Path 3069" d="M351.326,613.6H334.27a4.873,4.873,0,0,1,0-9.746h17.055a4.873,4.873,0,1,1,0,9.746Z" transform="translate(519.783 18.151)" fill="#f2f2f2"/>
      <path id="Path_3070" data-name="Path 3070" d="M371.427,640.6H334.27a4.873,4.873,0,0,1,0-9.746h37.156a4.873,4.873,0,1,1,0,9.746Z" transform="translate(519.783 7.598)" fill="#f2f2f2"/>
    </g>
  </g>
</svg>
