<svg xmlns="http://www.w3.org/2000/svg" xmlns:xlink="http://www.w3.org/1999/xlink" width="272" height="139" viewBox="0 0 272 139">
  <defs>
    <linearGradient id="linear-gradient" y1="0.5" x2="1" y2="0.5" gradientUnits="objectBoundingBox">
      <stop offset="0" stop-color="gray" stop-opacity="0.251"/>
      <stop offset="0.54" stop-color="gray" stop-opacity="0.122"/>
      <stop offset="1" stop-color="gray" stop-opacity="0.102"/>
    </linearGradient>
    <linearGradient id="linear-gradient-2" x1="12.106" y1="0.5" x2="13.106" y2="0.5" xlink:href="#linear-gradient"/>
  </defs>
  <g id="Group_10506" data-name="Group 10506" transform="translate(-824 -446)">
    <path id="Path_15241" data-name="Path 15241" d="M3.514-20H268.486A3.518,3.518,0,0,1,272-16.479V115.479A3.518,3.518,0,0,1,268.486,119H3.514A3.518,3.518,0,0,1,0,115.479V-16.479A3.518,3.518,0,0,1,3.514-20Z" transform="translate(824 466)" fill="#f5f7fb"/>
    <g id="undraw_warning_cyit" transform="translate(865.763 460.672)">
      <ellipse id="Ellipse_1015" data-name="Ellipse 1015" cx="26.111" cy="4.047" rx="26.111" ry="4.047" transform="translate(0 88.115)" fill="#6c63ff" opacity="0.1"/>
      <ellipse id="Ellipse_1016" data-name="Ellipse 1016" cx="10.156" cy="2.098" rx="10.156" ry="2.098" transform="translate(28.505 111.294)" fill="#6c63ff" opacity="0.1"/>
      <ellipse id="Ellipse_1017" data-name="Ellipse 1017" cx="10.156" cy="2.098" rx="10.156" ry="2.098" transform="translate(97.9 103.222)" fill="#6c63ff" opacity="0.1"/>
      <ellipse id="Ellipse_1018" data-name="Ellipse 1018" cx="16.515" cy="2.798" rx="16.515" ry="2.798" transform="translate(57.079 100.062)" fill="#6c63ff" opacity="0.1"/>
      <ellipse id="Ellipse_1019" data-name="Ellipse 1019" cx="34.446" cy="5.395" rx="34.446" ry="5.395" transform="translate(87.809 83.615)" fill="#6c63ff" opacity="0.1"/>
      <path id="Path_15308" data-name="Path 15308" d="M124.986,493.849a9.585,9.585,0,0,0,.5,9.623,2.381,2.381,0,0,0,.806.87c1.07.421,3.214,1.454,3.214,1.454l5.161-2.028s.838-4.433,1.63-8.239h0a46.026,46.026,0,0,1,1.277-5.3c.534-.994,0-11.82,0-11.82s-5.161-.346-6.581,3.633l-.621,1.214Z" transform="translate(-117.846 -414.256)" fill="#a8a8a8"/>
      <path id="Path_15309" data-name="Path 15309" d="M166.161,495.054c3.138,3.6,4.462.486,4.462.486h0a46.018,46.018,0,0,1,1.277-5.3c.534-.994,0-11.82,0-11.82s-5.161-.346-6.581,3.633l-.621,1.214C164.3,486.448,163.906,492.466,166.161,495.054Z" transform="translate(-152.169 -414.264)" fill="#fff" opacity="0.1"/>
      <path id="Path_15310" data-name="Path 15310" d="M180.59,436.489l18.217-2.1L202.057,413l-2.458-5.555a22.506,22.506,0,0,0-4.251-6.412,13.038,13.038,0,0,0-4.305-3.188,6.457,6.457,0,0,0-.657-.225,1.7,1.7,0,0,0-1.518.269c-2.247,1.592-3.05,8.363-3.309,11.622a36.376,36.376,0,0,1-.542,3.991Z" transform="translate(-165.909 -345.676)" fill="#a8a8a8"/>
      <path id="Path_15311" data-name="Path 15311" d="M238.919,412.76l-3.8,9.336c1.989-1.454,4.935-9.374,4.935-9.374l2.64,9.029-2.1-9.517a29.765,29.765,0,0,0,.267-6.245c-.167-2.389-2.409-6.224-3.627-8.155a6.447,6.447,0,0,0-.657-.225,1.7,1.7,0,0,0-1.518.269c.956,1.92,3.347,6.722,4.076,8.149C240.061,407.824,238.919,412.76,238.919,412.76Z" transform="translate(-212.11 -345.667)" fill="#fff" opacity="0.1"/>
      <path id="Path_15312" data-name="Path 15312" d="M280.89,519.3h9.884a3,3,0,0,0,3-3.15c-.219-4.238-.773-11.8-2.09-16.592-.712-2.588-1.539-3.947-2.3-4.616a2.242,2.242,0,0,0-1.307-.615,1.716,1.716,0,0,0-1.063.258c-1.835,1.759-3.979,11.018-3.979,11.018Z" transform="translate(-250.983 -427.757)" fill="#a8a8a8"/>
      <path id="Path_15313" data-name="Path 15313" d="M299.295,583.253a4.853,4.853,0,0,1,0,3.7l-2.2,1.088s-5.92-2.509-5.2-7.652c0,0,.194-1.063,2.233-.981A5.779,5.779,0,0,1,299.295,583.253Z" transform="translate(-260.262 -499.923)" fill="#fff" opacity="0.1"/>
      <path id="Path_15314" data-name="Path 15314" d="M309.9,497.6a2.278,2.278,0,0,1,1.72-2.628,2.242,2.242,0,0,0-1.307-.615,3.471,3.471,0,0,0-1.14,1.822l-2.065,10.063S310.017,500.625,309.9,497.6Z" transform="translate(-273.222 -427.793)" fill="#fff" opacity="0.1"/>
      <path id="Path_15315" data-name="Path 15315" d="M176.362,568.14l4.894,6.695.849,5.526-3.145,1.553-4.534,1a4.356,4.356,0,0,1-1.331.087l-12.374-1.089,1.684-3.9,5.814-8.163Z" transform="translate(-149.055 -490.373)" fill="#a8a8a8"/>
      <path id="Path_15316" data-name="Path 15316" d="M183.84,552.985s3.34.229,2.086,5.968-14.156,6.2-14.156,6.2a33.9,33.9,0,0,1,6.959-8.339c.474-.39.931-.8,1.366-1.231C181.065,554.611,182.92,552.906,183.84,552.985Z" transform="translate(-158.428 -477.516)" fill="#fff" opacity="0.1"/>
      <path id="Path_15317" data-name="Path 15317" d="M271.07,581.5a13.907,13.907,0,0,1,4.1,10.456" transform="translate(-242.653 -501.704)" opacity="0.1"/>
      <path id="Path_15318" data-name="Path 15318" d="M291.711,496.06a31.618,31.618,0,0,0-5.281,16.032" transform="translate(-255.682 -429.235)" opacity="0.1"/>
      <path id="Path_15319" data-name="Path 15319" d="M194.64,478.43s2.3,10.437-3.44,18.3" transform="translate(-174.908 -414.281)" opacity="0.1"/>
      <path id="Path_15320" data-name="Path 15320" d="M481.865,589.066h24.766a1.388,1.388,0,0,0,1.214-2.045l-12.377-23a1.386,1.386,0,0,0-2.441,0l-12.383,23a1.388,1.388,0,0,0,1.221,2.045Zm13.959-4.2h-3.152v-3.15h3.152Zm0-5.251h-3.152v-6.3h3.152Z" transform="translate(-420.273 -486.264)" fill="#464353"/>
      <path id="Path_15321" data-name="Path 15321" d="M481.865,589.066h24.766a1.388,1.388,0,0,0,1.214-2.045l-12.377-23a1.386,1.386,0,0,0-2.441,0l-12.383,23a1.388,1.388,0,0,0,1.221,2.045Zm13.959-4.2h-3.152v-3.15h3.152Zm0-5.251h-3.152v-6.3h3.152Z" transform="translate(-420.273 -486.264)" opacity="0.1"/>
      <path id="Path_15322" data-name="Path 15322" d="M481.865,594.066h24.766a1.388,1.388,0,0,0,1.214-2.045l-12.377-23a1.386,1.386,0,0,0-2.441,0l-12.383,23a1.388,1.388,0,0,0,1.221,2.045Zm13.959-4.2h-3.151v-3.15h3.151Zm0-5.251h-3.151v-6.3h3.151Z" transform="translate(-420.273 -490.505)" fill="#464353"/>
      <path id="Path_15323" data-name="Path 15323" d="M134.458,294.813a1.7,1.7,0,0,0-.351-.17c-.407-.152-.841-.191-1.248-.337a1.787,1.787,0,0,1-.627-.37c-.03-.03-.059-.061-.087-.093.152-.1.29-.191.44-.281a5.216,5.216,0,0,0-1.831-1.822c.244-.36.8-.331,1.117-.621a1.063,1.063,0,0,0,.3-.6,4.123,4.123,0,0,0-.178-1.8,22.211,22.211,0,0,0-1.047-3.393,13.374,13.374,0,0,1-.568-1.375c-.393-1.309-.118-2.733-.416-4.07a2.855,2.855,0,0,1-.143-1.3c.165-.659.9-1.049,1.063-1.708a68.3,68.3,0,0,0,1.019-7.173,9.231,9.231,0,0,0,.123-1.377c0-.484-.087-.964-.121-1.447a26.321,26.321,0,0,1,.295-4.064,4.251,4.251,0,0,1,.551,1.359,5.484,5.484,0,0,1,.032,1.348,6.332,6.332,0,0,1-.1.9c-.074.352-.2.689-.291,1.041a3.22,3.22,0,0,0,.144,2.089c.206.455.66.877,1.132.741a1.223,1.223,0,0,0,.669-.727,4.437,4.437,0,0,0,.4-3.111,9.342,9.342,0,0,1-.686-2.014,5.207,5.207,0,0,1,.067-.852,29.515,29.515,0,0,0-.311-4.963,9.678,9.678,0,0,0-.083-1.45c-.012-.056-.026-.112-.042-.165a.356.356,0,0,1,.109.05.99.99,0,0,0-.021-.849,2.161,2.161,0,0,1-.143-.267c-.058-.152-.047-.328-.118-.474a2.023,2.023,0,0,0-.152-.22,1.767,1.767,0,0,1-.211-1q-.035-2.7-.152-5.386a8.821,8.821,0,0,0-.411-2.7,4.044,4.044,0,0,0-1.427-1.893,3.318,3.318,0,0,0-.32-.2,1.112,1.112,0,0,0,.091-.41.981.981,0,0,0,0-.134l-.009-.076h0a3.2,3.2,0,0,0-.3-.911,2.559,2.559,0,0,1-.29-1,1.546,1.546,0,0,1,.011-.188h0c.052-.437.279-.847.36-1.284a2.2,2.2,0,0,0,.033-.411c0-.047,0-.1,0-.144a4.138,4.138,0,0,0-.487-1.533c-.076-.152-.152-.3-.237-.455-.039-.284-.083-.568-.128-.85-.024-.164-.05-.328-.085-.49q-.026-.121-.059-.237c.235-.222.1-.547-.052-.847a7.016,7.016,0,0,1-.352-1.881,5.684,5.684,0,0,0-.446-1.263,2.814,2.814,0,0,0-.484-.8,2.969,2.969,0,0,0-.627-.455,2,2,0,0,0-.622-.281c-.138-.027-.279-.026-.416-.058a1.32,1.32,0,0,1-.255-.093,1.734,1.734,0,0,0-.545-.2,1.215,1.215,0,0,0-.525.1,1.932,1.932,0,0,1-.565.152h-.214a.475.475,0,0,0-.29.07,1.1,1.1,0,0,0-.124.128,1.679,1.679,0,0,1-.366.25,3.605,3.605,0,0,0-1.77,3.082,1.527,1.527,0,0,1-.044.5c-.044.128-.131.238-.167.369a1.035,1.035,0,0,0-.017.346c.012.178.03.354.05.531h0a1.117,1.117,0,0,0-.222.49h0a.67.67,0,0,0-.014.094v.012h0a2.749,2.749,0,0,0,.231.911,3.237,3.237,0,0,1-.046,1.787,7.037,7.037,0,0,0-.3,1.214h0v.027a1.468,1.468,0,0,0,.07.607c.05.138.124.267.17.407a1.677,1.677,0,0,1-.383,1.448h0c-.049.068-.1.134-.152.2h.008l-.008.008.316.223c-.093.049-.185.1-.279.152a2.873,2.873,0,0,0-1.029.381,4.185,4.185,0,0,0-.835.556,3.541,3.541,0,0,0-.659.911,11.45,11.45,0,0,0-.559,1.178,3.689,3.689,0,0,0-.285,1.022c-.131.278-.238.577-.358.846-.061.138-.12.276-.179.414L112.167,235.7l-.811.337.064.152-.169.071.229.559c-.033.023-.067.046-.1.07l-.042.033-.085.067-.043.035-.087.073-.032.027-.108.1h0c-.115.1-.226.216-.334.326l-.278.287-.053.056-.093.094-.052.053-.132.132-.009.009-.082.079-.052.049c-.021.021-.044.041-.067.061l-.064.059-.1.088-.03.027-.141.112a3.961,3.961,0,0,1-.607.39c-.83.43-1.709.789-2.52,1.249a7.257,7.257,0,0,0-1.248.874,9.915,9.915,0,0,1-1.611,1.407l-.068.036c-1.1.565-2.394.226-3.643.2-.187,0-.37,0-.553.012a6.979,6.979,0,0,0-2.839.991c-.632.354-1.248.751-1.867,1.111-.392.226-.785.472-1.18.724a26.662,26.662,0,0,1-3.065,1.785,6.441,6.441,0,0,1-3.036.676h-.014a2.527,2.527,0,0,1-.3-.026c-.1.8.539,1.439.964,2.141a2.169,2.169,0,0,1,.36,1.014,1.822,1.822,0,0,1-.03.407,5.111,5.111,0,0,0-.25,1.469,1.7,1.7,0,0,0,.323.8c.27.386.645.729.9,1.131a6.093,6.093,0,0,1,.636,2.062,4.337,4.337,0,0,0,.5,1.428,6.1,6.1,0,0,0,1.3,1.316c.087.074.172.152.254.228.061.055.12.112.176.172A2.026,2.026,0,0,1,92.7,262.4c-.011.024-.023.046-.035.068a.6.6,0,0,0,.084.05c.424.206.955-.124,1.3-.475.172-.172.334-.354.492-.539.424-.471.812-.981,1.214-1.469.109-.132.219-.261.331-.389a5.617,5.617,0,0,1,1.5-1.214,5.508,5.508,0,0,1,.92-.373c.471-.152.956-.264,1.428-.413a11.734,11.734,0,0,0,1.881-.789,28.932,28.932,0,0,0,3.036-1.882l.152-.1a5.205,5.205,0,0,0,.9-.721c.049-.053.1-.108.14-.164.237-.3.39-.663.607-.979a3.15,3.15,0,0,1,.852-.821,12.55,12.55,0,0,1,3.293-1.214h.012A12.8,12.8,0,0,0,116,247.89l.832,2.037q-.129.361-.244.73a5.937,5.937,0,0,1-.7,1.746,1.3,1.3,0,0,0-.264.469,1.518,1.518,0,0,1-.062.376c-.052.1-.159.172-.2.278-.064.152.02.348-.065.49a.772.772,0,0,1-.144.152,1.008,1.008,0,0,0-.275.773,2.706,2.706,0,0,1-.068.838,2,2,0,0,1,.2-.1.911.911,0,0,0-.017.152,1.691,1.691,0,0,0,.053.427,3.368,3.368,0,0,0,.443.887,6.292,6.292,0,0,0,.475.683,6.224,6.224,0,0,0,1,.9l1.53,1.181-.152.639a17.861,17.861,0,0,0-.688,4.076,17.558,17.558,0,0,0,.123,1.957l.132,1.333c.106,1.073.213,2.147.329,3.22a8.245,8.245,0,0,0,.392,2.007c.361.973-.038,2.072.115,3.1a5.48,5.48,0,0,1,.12,2.418c-.1.3-.267.6-.392.9a6.721,6.721,0,0,0-.369,2.386,10.141,10.141,0,0,0,.077,2.125,8.743,8.743,0,0,1,.363,2.174c-.079,1.046-.844,1.94-.937,2.986a4.4,4.4,0,0,0,.679,2.379c.287.545-.114,1.249-.266,1.849a4.7,4.7,0,0,0,.815,3.449.17.17,0,0,0,.077.082c.07.026.135-.044.181-.1a1.235,1.235,0,0,1,.091-.108c0,.047.009.094.012.14,0,.1.008.2.008.3a3.052,3.052,0,0,0,.206,1.123,1.985,1.985,0,0,0,.085.2.937.937,0,0,0,.152.244.928.928,0,0,0,.607.255,7.862,7.862,0,0,0,1.518-.094c.534-.046,1.07-.026,1.606-.038a.232.232,0,0,0,.12-.026.2.2,0,0,0,.068-.109,1.214,1.214,0,0,0,.026-.6,4.24,4.24,0,0,0-.114-.475c-.071-.25-.137-.5-.2-.759-.012-.047-.023-.094-.033-.141l.024.011q.49-1.1.982-2.2a1.985,1.985,0,0,0,.252-1.173,3.451,3.451,0,0,0-.37-.788,4.625,4.625,0,0,1-.32-2.025l-.018-3.9a8.552,8.552,0,0,0,1.518-3.314,10.719,10.719,0,0,1,.09,5.161,4.809,4.809,0,0,0-.144.786c-.059,1.082.783,2,1.008,3.059a.689.689,0,0,1,.017.249.934.934,0,0,1-.124.288,4.5,4.5,0,0,0-.3,2.473l.178.029a.47.47,0,0,0,.188.185h0a.929.929,0,0,0,.235.1,5.8,5.8,0,0,0,.885.135c.428.043.858.085,1.287.112.17.011.34.02.51.024a5.091,5.091,0,0,1,.714.05,5.156,5.156,0,0,1,.758.22,4.849,4.849,0,0,0,3.417.12,1.539,1.539,0,0,0,.624-.442.735.735,0,0,0-.184-1.142Zm-14.683-43.275c.161.32.322.639.455.972a3.35,3.35,0,0,1,.255,2.037c-.049.2-.366.349-.364.553a.454.454,0,0,0-.024.047l-.991-2.429A8.664,8.664,0,0,1,119.776,251.538Zm-1.088,5.161a4.2,4.2,0,0,1-.537-.928c-.018-.041-.038-.08-.056-.121a.365.365,0,0,0,.144-.108c.152-.191.07-.471.093-.716a1.549,1.549,0,0,1,.241-.607l.931,2.277q-.141.37-.264.748A5.312,5.312,0,0,1,118.687,256.7Z" transform="translate(-86.469 -203.637)" fill="url(#linear-gradient)"/>
      <path id="Path_15324" data-name="Path 15324" d="M315.341,258.616a2.719,2.719,0,0,0,.234.911,3.223,3.223,0,0,1-.044,1.782,3.082,3.082,0,0,0-.238,1.843c.05.14.126.267.172.407a1.867,1.867,0,0,1-.543,1.656l1.5,1.052a1.726,1.726,0,0,0,.759.363.594.594,0,0,0,.665-.393c.02-.094,0-.193.018-.288a.783.783,0,0,1,.421-.583,1.375,1.375,0,0,1,.727-.135,7.366,7.366,0,0,1,2.543,1.044,10.227,10.227,0,0,0,1.711.568,1.374,1.374,0,0,0,1,0,.95.95,0,0,0,.416-.9,2.935,2.935,0,0,0-.319-.988,2.513,2.513,0,0,1-.293-.994,8.277,8.277,0,0,1,.373-1.476,3.364,3.364,0,0,0-.465-2.083,8.823,8.823,0,0,1-.885-1.974,2.882,2.882,0,0,0-.165-.624,1.421,1.421,0,0,0-.3-.407,3.4,3.4,0,0,0-2.153-.879,9.755,9.755,0,0,0-2.361.206,4.935,4.935,0,0,0-.876.208,5.559,5.559,0,0,0-1.152.624A1.5,1.5,0,0,0,315.341,258.616Z" transform="translate(-279.847 -226.047)" fill="#464353"/>
      <g id="Group_10499" data-name="Group 10499" transform="translate(35.069 32.468)" opacity="0.1">
        <path id="Path_15325" data-name="Path 15325" d="M375.169,294a.667.667,0,0,0,.009.135c.047-.445.281-.862.364-1.307a2.158,2.158,0,0,0,.029-.54,1.48,1.48,0,0,1-.029.237A7.678,7.678,0,0,0,375.169,294Z" transform="translate(-366.019 -288.867)"/>
        <path id="Path_15326" data-name="Path 15326" d="M318.019,271.358a2.722,2.722,0,0,0-.1-.911,5.268,5.268,0,0,1-.22-.707c0,.032-.012.062-.014.094a2.718,2.718,0,0,0,.234.911A2.567,2.567,0,0,1,318.019,271.358Z" transform="translate(-317.258 -269.74)"/>
        <path id="Path_15327" data-name="Path 15327" d="M324.644,312.833a.868.868,0,0,1-.407.669,1.375,1.375,0,0,1-1,0,10.1,10.1,0,0,1-1.711-.569,7.392,7.392,0,0,0-2.543-1.043,1.375,1.375,0,0,0-.727.135.783.783,0,0,0-.421.583c-.011.1,0,.194-.018.288a.6.6,0,0,1-.665.393,1.727,1.727,0,0,1-.759-.363l-1.35-.947c-.05.068-.1.135-.152.2l1.5,1.054a1.726,1.726,0,0,0,.759.363.594.594,0,0,0,.665-.393c.02-.094,0-.193.018-.288a.783.783,0,0,1,.421-.583,1.375,1.375,0,0,1,.727-.135,7.394,7.394,0,0,1,2.543,1.043,10.105,10.105,0,0,0,1.711.569,1.374,1.374,0,0,0,1,0,.95.95,0,0,0,.416-.9C324.651,312.883,324.647,312.858,324.644,312.833Z" transform="translate(-314.89 -305.487)"/>
        <path id="Path_15328" data-name="Path 15328" d="M317.106,297.185a1.176,1.176,0,0,1,.041.187,1.1,1.1,0,0,0-.041-.49c-.046-.14-.121-.267-.172-.407a1.271,1.271,0,0,1-.07-.314,1.427,1.427,0,0,0,.07.618C316.984,296.918,317.06,297.047,317.106,297.185Z" transform="translate(-316.558 -292.149)"/>
      </g>
      <path id="Path_15329" data-name="Path 15329" d="M305.283,665a.2.2,0,0,1-.07.109.232.232,0,0,1-.12.026c-.54.012-1.081,0-1.62.038a7.75,7.75,0,0,1-1.53.094.785.785,0,0,1-.759-.5,2,2,0,0,1-.085-.2,3.023,3.023,0,0,1-.208-1.123v-.3a2.3,2.3,0,0,0-.044-.331.5.5,0,0,1,.015-.384,1.343,1.343,0,0,1,1.137-.5,9.388,9.388,0,0,1,2.77.2c.071.349.152.7.237,1.041q.094.381.2.759a4.237,4.237,0,0,1,.115.475A1.214,1.214,0,0,1,305.283,665Z" transform="translate(-267.884 -569.895)" fill="#464353"/>
      <path id="Path_15330" data-name="Path 15330" d="M306.864,679.014a.2.2,0,0,1-.07.109.233.233,0,0,1-.12.026c-.54.012-1.081,0-1.62.038a7.745,7.745,0,0,1-1.53.094.785.785,0,0,1-.759-.5,2,2,0,0,1-.085-.2h.194c.639,0,1.28-.023,1.919-.023a4.907,4.907,0,0,0,.578-.032c.191-.023.348-.055.522-.076a7.166,7.166,0,0,1,.786-.032h.216A1.215,1.215,0,0,1,306.864,679.014Z" transform="translate(-269.465 -583.907)" opacity="0.06"/>
      <path id="Path_15331" data-name="Path 15331" d="M355.161,650.328a1.552,1.552,0,0,1-.628.442,4.964,4.964,0,0,1-3.446-.12,5.244,5.244,0,0,0-.767-.22,5.166,5.166,0,0,0-.718-.05c-.172,0-.343-.014-.515-.024-.434-.027-.867-.07-1.3-.112a5.877,5.877,0,0,1-.893-.135.951.951,0,0,1-.238-.1h0a.366.366,0,0,1-.219-.326c.012-.193.213-.3.389-.387a18.981,18.981,0,0,1,4.944-1.2,1.984,1.984,0,0,0,.5-.152c.19-.076.21.049.3.188a1.176,1.176,0,0,0,.152.179,1.807,1.807,0,0,0,.632.37c.41.152.849.193,1.259.337a1.722,1.722,0,0,1,.354.17.732.732,0,0,1,.185,1.142Z" transform="translate(-306.582 -558.04)" fill="#464353"/>
      <path id="Path_15332" data-name="Path 15332" d="M369.954,657.412a1.553,1.553,0,0,1-.628.442,4.963,4.963,0,0,1-3.446-.12,5.249,5.249,0,0,0-.767-.22,5.149,5.149,0,0,0-.718-.05c-.172,0-.343-.014-.515-.024.14-.132.282-.261.428-.386a1.276,1.276,0,0,1,.36-.237,1.043,1.043,0,0,1,.512-.035c.868.12,1.649.729,2.525.676a3.107,3.107,0,0,0,1.161-.375,2.027,2.027,0,0,0,.759-.54.875.875,0,0,0,.141-.272.732.732,0,0,1,.185,1.142Z" transform="translate(-321.374 -565.124)" opacity="0.06"/>
      <path id="Path_15333" data-name="Path 15333" d="M382.193,417.586a1.257,1.257,0,0,1-.674.727c-.477.137-.935-.291-1.143-.741a3.2,3.2,0,0,1-.152-2.089c.087-.351.219-.688.293-1.04a6.329,6.329,0,0,0,.1-.9,5.484,5.484,0,0,0-.032-1.348c-.244-1.3-1.366-2.277-1.74-3.558a6.64,6.64,0,0,1-.168-1.986,2.04,2.04,0,0,1,.052-.5.783.783,0,0,1,.046-.131c.25-.556.993-.632,1.509-.955.285-.178.934-.75,1.173-.228a1.72,1.72,0,0,1,.115.363,9.66,9.66,0,0,1,.083,1.448,29.186,29.186,0,0,1,.314,4.961,5.176,5.176,0,0,0-.067.85,9.2,9.2,0,0,0,.692,2.014A4.348,4.348,0,0,1,382.193,417.586Z" transform="translate(-333.918 -351.681)" fill="#fbbebe"/>
      <path id="Path_15334" data-name="Path 15334" d="M381.933,405.189a.512.512,0,0,0-.349,0l-1.028.3a6.363,6.363,0,0,0-1.049.381,2.459,2.459,0,0,0-.417.26.785.785,0,0,1,.046-.131c.251-.556.993-.632,1.509-.955.285-.178.934-.75,1.173-.228A1.72,1.72,0,0,1,381.933,405.189Z" transform="translate(-334.275 -351.664)" opacity="0.1"/>
      <path id="Path_15335" data-name="Path 15335" d="M370.634,332.841a.464.464,0,0,0-.416-.033l-1.028.3a6.367,6.367,0,0,0-1.049.381,2.41,2.41,0,0,0-.5.325,6.747,6.747,0,0,1-.7-2.778c-.049-.557-.085-1.116-.106-1.67a7.492,7.492,0,0,1,.024-1.2c.058-.455.19-.9.272-1.353a6.182,6.182,0,0,0,.094-.8,7.841,7.841,0,0,0-.08-1.759,10.908,10.908,0,0,0-.422-1.822c-.1-.272-.214-.534-.32-.8l-.036-.094a11.061,11.061,0,0,1-.469-1.5c-.049-.21-.052-.43-.213-.572a2.856,2.856,0,0,1,.455-.018h.091a3.4,3.4,0,0,1,1.737.607,4.057,4.057,0,0,1,1.439,1.9,8.759,8.759,0,0,1,.414,2.7q.123,2.69.152,5.383a1.719,1.719,0,0,0,.212,1,2.027,2.027,0,0,1,.152.22c.071.152.061.32.118.474a2.407,2.407,0,0,0,.144.267A.979.979,0,0,1,370.634,332.841Z" transform="translate(-322.91 -279.431)" fill="#464353"/>
      <path id="Path_15336" data-name="Path 15336" d="M329.155,289.462c-.152-.05-.3-.1-.455-.152l.316.024A.636.636,0,0,1,329.155,289.462Z" transform="translate(-291.535 -253.871)" fill="#fbbebe"/>
      <path id="Path_15337" data-name="Path 15337" d="M331.163,295.806c-.03.1-.061.206-.094.3a5.805,5.805,0,0,1-.281.73,3.4,3.4,0,0,1-.718,1.041.954.954,0,0,1-.358.237,1.139,1.139,0,0,1-.352.033q-.607,0-1.214-.018a4.314,4.314,0,0,1-.938-.093,3.35,3.35,0,0,1-.956-.431,5.677,5.677,0,0,1-2.465-3.036.5.5,0,0,1,.026-.48.587.587,0,0,1,.387-.132h.018a2.445,2.445,0,0,0,.925-.317.951.951,0,0,0,.422-.431,1.163,1.163,0,0,0-.014-.671l-.337-1.53a1.585,1.585,0,0,0-.269-.682c.1.035.2.067.3.094.938.254,1.964.1,2.884.433a1.229,1.229,0,0,1,.811.723c.178.607-.416,1.237-.246,1.844.114.413.534.651.911.844l.254.129.7.357.1.049.015.008a.953.953,0,0,1,.533.49A.911.911,0,0,1,331.163,295.806Z" transform="translate(-287.325 -254.736)" fill="#fbbebe"/>
      <path id="Path_15338" data-name="Path 15338" d="M333.015,318.7a3.277,3.277,0,0,1-.279,1.123,4.589,4.589,0,0,0-.478,1.973c-.117,2.049-.9,4.489.22,6.21.027.042.055.085.08.129a2.41,2.41,0,0,0-.5.325,6.747,6.747,0,0,1-.7-2.778c-.049-.557-.085-1.116-.106-1.67a7.485,7.485,0,0,1,.024-1.2c.058-.455.19-.9.272-1.353a6.178,6.178,0,0,0,.094-.8,7.836,7.836,0,0,0-.08-1.759,10.9,10.9,0,0,0-.422-1.822c-.1-.272-.214-.534-.32-.8l-.036-.094a3.4,3.4,0,0,1-.718,1.041.954.954,0,0,1-.358.237,1.137,1.137,0,0,1-.352.033q-.607,0-1.214-.018a4.313,4.313,0,0,1-.938-.093,3.351,3.351,0,0,1-.956-.431,5.678,5.678,0,0,1-2.465-3.036.5.5,0,0,1,.026-.48.587.587,0,0,1,.387-.132h.018l1.366,1.69a2.732,2.732,0,0,1,.395.591.353.353,0,0,0,.121.181.311.311,0,0,0,.152.027h4.275a1.11,1.11,0,0,0-.188-.639c-.039.009-.093.012-.011-.012a4.3,4.3,0,0,0-.471-1.407.967.967,0,0,0-.047-.088,1.619,1.619,0,0,1-.225-.492.623.623,0,0,1,.864.469c.07.152.14.314.2.474,0,.017.015.035.021.052a3.434,3.434,0,0,1,.252.985c.009.124.04.282.143.323a.136.136,0,0,0,.052.012.574.574,0,0,1,.621.152,1.366,1.366,0,0,1,.3.6,3.273,3.273,0,0,0,.216.644c.2.373-.1.54.25.77a1.233,1.233,0,0,1,.416.373A1.166,1.166,0,0,1,333.015,318.7Z" transform="translate(-287.325 -274.062)" opacity="0.1"/>
      <path id="Path_15339" data-name="Path 15339" d="M304.68,662.165c.071.349.152.7.237,1.041l-.009.021a7.047,7.047,0,0,0-2.162-.688,2.4,2.4,0,0,0-1.945.639,2.3,2.3,0,0,0-.044-.331.5.5,0,0,1,.015-.384,1.342,1.342,0,0,1,1.137-.5A9.388,9.388,0,0,1,304.68,662.165Z" transform="translate(-267.807 -569.929)" opacity="0.1"/>
      <path id="Path_15340" data-name="Path 15340" d="M365.926,328.37c.071,0,.046,0,.011.012S365.844,328.394,365.926,328.37Z" transform="translate(-323.074 -287.001)" opacity="0.1"/>
      <path id="Path_15341" data-name="Path 15341" d="M352.732,648.309a13.2,13.2,0,0,0-1.9,1.471,1.989,1.989,0,0,1-.6.439,1.753,1.753,0,0,1-.723.074,24.6,24.6,0,0,1-2.851-.282h0a.366.366,0,0,1-.219-.326c.012-.193.213-.3.389-.387a18.986,18.986,0,0,1,4.944-1.2,1.982,1.982,0,0,0,.5-.152c.19-.076.21.049.3.188A1.168,1.168,0,0,0,352.732,648.309Z" transform="translate(-306.582 -558.04)" opacity="0.1"/>
      <path id="Path_15342" data-name="Path 15342" d="M294.245,313.779c.223.2.478.36.7.553a6.372,6.372,0,0,1,1.366,1.935,1.266,1.266,0,0,1-.7.047,5,5,0,0,0,.059,2.03,1.882,1.882,0,0,0-.679.843,5.634,5.634,0,0,0-.222,1.063q-.328,2.37-.659,4.739a.734.734,0,0,1-.152.427.822.822,0,0,0-.115.114.631.631,0,0,0-.053.326c-.009.111-.082.243-.193.228a.24.24,0,0,1-.135-.088,3.1,3.1,0,0,1-.3-.376,24.42,24.42,0,0,0-1.8,5.45,13.2,13.2,0,0,0-.571,6.03l.134,1.333c.108,1.072.216,2.145.332,3.217a8.1,8.1,0,0,0,.4,2.007c.364.973-.039,2.071.115,3.1a5.452,5.452,0,0,1,.12,2.417c-.1.311-.267.6-.395.9a6.724,6.724,0,0,0-.372,2.386,10.02,10.02,0,0,0,.079,2.125,8.7,8.7,0,0,1,.366,2.174c-.081,1.046-.852,1.94-.946,2.985a4.38,4.38,0,0,0,.685,2.377c.29.545-.114,1.249-.267,1.849a4.682,4.682,0,0,0,.821,3.448.165.165,0,0,0,.079.082c.071.026.135-.044.182-.1a2.336,2.336,0,0,1,2.049-.759,6.859,6.859,0,0,1,2.162.688l.985-2.194a1.964,1.964,0,0,0,.254-1.173,3.4,3.4,0,0,0-.373-.788,4.6,4.6,0,0,1-.322-2.025l-.018-3.9a8.53,8.53,0,0,0,1.533-3.312,10.627,10.627,0,0,1,.091,5.161,4.678,4.678,0,0,0-.152.786c-.059,1.082.789,2,1.016,3.057a.657.657,0,0,1,.018.249.938.938,0,0,1-.126.288,4.443,4.443,0,0,0-.3,2.473,24.646,24.646,0,0,0,3.22.345,1.81,1.81,0,0,0,.723-.074,1.994,1.994,0,0,0,.6-.44,13.238,13.238,0,0,1,2.257-1.708,5.255,5.255,0,0,0-1.844-1.822c.244-.36.8-.331,1.126-.619a1.063,1.063,0,0,0,.3-.6,4.064,4.064,0,0,0-.179-1.8,21.4,21.4,0,0,0-1.063-3.393,13.051,13.051,0,0,1-.571-1.374c-.4-1.309-.12-2.732-.421-4.07a2.8,2.8,0,0,1-.144-1.3c.167-.657.911-1.047,1.075-1.706a67.861,67.861,0,0,0,1.026-7.17,9.211,9.211,0,0,0,.12-1.383c0-.484-.087-.964-.121-1.447-.137-1.933.481-3.86.323-5.791a7.286,7.286,0,0,0-1.142-3.34c-1.116-1.723-.337-4.161-.22-6.21a4.566,4.566,0,0,1,.477-1.973,3.237,3.237,0,0,0,.281-1.123,1.161,1.161,0,0,0-.085-.709,1.2,1.2,0,0,0-.414-.373c-.354-.231-.055-.4-.25-.771a3.234,3.234,0,0,1-.216-.644,1.355,1.355,0,0,0-.3-.6.574.574,0,0,0-.621-.152c-.144,0-.184-.191-.2-.335a4.73,4.73,0,0,0-.474-1.51.824.824,0,0,0-.366-.469.836.836,0,0,0-.5,0,1.615,1.615,0,0,0,.226.493,4.288,4.288,0,0,1,.516,1.494c-.152.046.152,0,0,0a1.062,1.062,0,0,1,.2.651h-4.273a.3.3,0,0,1-.152-.027.364.364,0,0,1-.123-.181,2.631,2.631,0,0,0-.395-.589l-1.5-1.854a.378.378,0,0,0-.129-.117.348.348,0,0,0-.19,0A3.414,3.414,0,0,0,294.245,313.779Z" transform="translate(-259.232 -274.171)" fill="#e7ecf5"/>
      <path id="Path_15343" data-name="Path 15343" d="M342.9,482.209a1.448,1.448,0,0,1,.739.191.745.745,0,0,1,.367.641,1.7,1.7,0,0,1-.4.759,2.035,2.035,0,0,0-.234.48.193.193,0,0,0-.012.123c.018.058.08.086.134.112a1.14,1.14,0,0,1,.669,1c-.014.592-.592,1.072-.56,1.67a3.426,3.426,0,0,0,.064.37,2.83,2.83,0,0,1-.2,1.5c-.184.477-.434.924-.631,1.4a9.906,9.906,0,0,0-.607,4.1,7.9,7.9,0,0,1-.607,2.751,39.54,39.54,0,0,0,.137-5.465c-.021-.495-.083-.962-.061-1.459.036-.788.477-1.5.589-2.277a11.232,11.232,0,0,0,.032-1.337c.021-.911.269-1.81.285-2.723A3.516,3.516,0,0,1,342.9,482.209Z" transform="translate(-302.493 -417.487)" opacity="0.1"/>
      <path id="Path_15344" data-name="Path 15344" d="M295.091,316.654a4.161,4.161,0,0,0-.841.556,3.582,3.582,0,0,0-.665.911,11.639,11.639,0,0,0-.563,1.178,2.624,2.624,0,0,0-.244,1.646,5.667,5.667,0,0,0,.773,1.316,11.209,11.209,0,0,1,.615,1.435c.267.642.633,1.24.9,1.884a3.337,3.337,0,0,1,.257,2.036c-.049.2-.369.351-.369.553,0,.334.483.7.8.794a1.2,1.2,0,0,0,1.073-.3,3.948,3.948,0,0,0,1.14-1.758,17.989,17.989,0,0,0,.808-3.311c.14-.823.27-1.647.345-2.476a6.3,6.3,0,0,0-.108-2.235,3.8,3.8,0,0,0-1.037-1.725,2.883,2.883,0,0,0-1.615-.9A2.661,2.661,0,0,0,295.091,316.654Z" transform="translate(-261.02 -276.721)" fill="#464353"/>
      <path id="Path_15345" data-name="Path 15345" d="M282.923,400.95a.726.726,0,0,1-.339.505,1.994,1.994,0,0,1-.578.237,2.4,2.4,0,0,1-1.249.123,2.508,2.508,0,0,1-.877-.5l-4.6-3.519a6.209,6.209,0,0,1-1.013-.9,6.472,6.472,0,0,1-.48-.682,3.34,3.34,0,0,1-.446-.887,1.623,1.623,0,0,1-.055-.427.8.8,0,0,1,.1-.39c.111-.185.348-.223.542-.275a5.687,5.687,0,0,1,2-.152.272.272,0,0,1,.27.184c.1.187.19.381.281.575a4.157,4.157,0,0,0,.542.928,7.823,7.823,0,0,0,.676.651c.486.455.884,1,1.4,1.421a11.7,11.7,0,0,0,2.011,1.131,3.714,3.714,0,0,1,1.7,1.51A.885.885,0,0,1,282.923,400.95Z" transform="translate(-244.536 -342.717)" fill="#fbbebe"/>
      <path id="Path_15346" data-name="Path 15346" d="M329.8,256.74a3.759,3.759,0,1,1-.1-.88A3.759,3.759,0,0,1,329.8,256.74Z" transform="translate(-286.088 -223.057)" opacity="0.1"/>
      <path id="Path_15347" data-name="Path 15347" d="M329.8,255.74a3.759,3.759,0,1,1-.1-.88A3.759,3.759,0,0,1,329.8,255.74Z" transform="translate(-286.088 -222.209)" fill="#fbbebe"/>
      <path id="Path_15348" data-name="Path 15348" d="M276.479,394.84a.889.889,0,0,1-.644.026,4.027,4.027,0,0,0-2.546.038.8.8,0,0,1,.1-.39c.111-.185.348-.223.542-.275a5.687,5.687,0,0,1,2-.152.272.272,0,0,1,.27.184C276.3,394.451,276.388,394.645,276.479,394.84Z" transform="translate(-244.536 -342.717)" opacity="0.1"/>
      <path id="Path_15349" data-name="Path 15349" d="M273.884,343.384a5.924,5.924,0,0,1-.706,1.746,1.291,1.291,0,0,0-.267.468,1.458,1.458,0,0,1-.062.376c-.052.1-.161.172-.2.278-.065.152.02.348-.067.49a.73.73,0,0,1-.144.152,1.062,1.062,0,0,0-.263.779,2.652,2.652,0,0,1-.07.836,3.763,3.763,0,0,1,2.733-.132c.254.056.568.1.732-.1s.07-.471.093-.715a2.841,2.841,0,0,1,.384-.873,10.386,10.386,0,0,0,.32-1.031,17.177,17.177,0,0,1,1.091-1.973,1.9,1.9,0,0,0,.216-.75,2.238,2.238,0,0,0-.26-.973,13.31,13.31,0,0,0-1.123-2.005c-.193-.284-.525-.809-.824-.355a8.51,8.51,0,0,0-.574,1.233A22.568,22.568,0,0,0,273.884,343.384Z" transform="translate(-243.527 -296.373)" fill="#464353"/>
      <path id="Path_15350" data-name="Path 15350" d="M326.166,266.282a3.068,3.068,0,0,1-2.456-.97.377.377,0,0,1-.109-.178.357.357,0,0,1,.07-.249c.182-.281.5-.466.642-.768a2.438,2.438,0,0,0,.109-.981c.024-.594.258-1.181.278-1.766a1.843,1.843,0,0,0-.033-.446,2.8,2.8,0,0,1-.128-.672c.02-.445.421-.791.487-1.23.087-.559-.376-1.044-.842-1.366a5.023,5.023,0,0,0-1.148-.594,3.736,3.736,0,0,0-.771-.187,3.005,3.005,0,0,0-1.453.162,2.374,2.374,0,0,0-.54.288.732.732,0,0,0-.241.25.814.814,0,0,0-.064.363,3.869,3.869,0,0,1-.235,1.822c-.152.29-.41.525-.536.832a1.382,1.382,0,0,0-.1.4,4.012,4.012,0,0,0-.023.428,4.465,4.465,0,0,0,.407,2.338,6.088,6.088,0,0,1,.39.654.745.745,0,0,1-.038.727.828.828,0,0,1-.3.228,2.429,2.429,0,0,1-1.942.07,2.461,2.461,0,0,0,.574-2.745,1.619,1.619,0,0,1-.21-.607,1.542,1.542,0,0,1,.152-.556,3.035,3.035,0,0,0,.093-1.779,6.484,6.484,0,0,1-.282-1.082,3.272,3.272,0,0,1,.036-.841,2.732,2.732,0,0,1,1.872-2.154c.077-.026.152-.05.237-.071a5.048,5.048,0,0,1,1.122-.12,8.517,8.517,0,0,1,2.509.169,3.368,3.368,0,0,1,1.3.668,2.345,2.345,0,0,1,.628.83,2.883,2.883,0,0,1,.178.574c.035.162.061.326.087.49a11.016,11.016,0,0,1,.172,3.523c-.077.455-.213.911-.273,1.375A8.312,8.312,0,0,0,326.166,266.282Z" transform="translate(-282.111 -225.164)" fill="#464353"/>
      <circle id="Ellipse_1020" data-name="Ellipse 1020" cx="0.282" cy="0.282" r="0.282" transform="translate(38.378 42.053)" fill="#fff"/>
      <circle id="Ellipse_1021" data-name="Ellipse 1021" cx="0.282" cy="0.282" r="0.282" transform="translate(43.143 41.92)" fill="#fff"/>
      <path id="Path_15351" data-name="Path 15351" d="M335.157,233.224l-.607-1.146a1.11,1.11,0,0,1,.126-.128.481.481,0,0,1,.293-.07Z" transform="translate(-296.497 -205.158)" opacity="0.1"/>
      <path id="Path_15352" data-name="Path 15352" d="M343.549,230.425l-.688,1.017-.392-1.116a1.241,1.241,0,0,1,.53-.1A1.76,1.76,0,0,1,343.549,230.425Z" transform="translate(-303.214 -203.756)" opacity="0.1"/>
      <g id="Group_10500" data-name="Group 10500" transform="translate(35.479 31.38)" opacity="0.1">
        <path id="Path_15353" data-name="Path 15353" d="M319.835,315.982a.827.827,0,0,1-.3.228,2.439,2.439,0,0,1-1.726.144,2.37,2.37,0,0,1-.216.229,2.429,2.429,0,0,0,1.942-.07.828.828,0,0,0,.3-.228.655.655,0,0,0,.1-.525A.539.539,0,0,1,319.835,315.982Z" transform="translate(-317.59 -307.686)"/>
        <path id="Path_15354" data-name="Path 15354" d="M319.887,275.189a2.988,2.988,0,0,1,.087.607,3.024,3.024,0,0,0-.087-.911,6.485,6.485,0,0,1-.282-1.082.9.9,0,0,0-.008-.143,3.388,3.388,0,0,0,.008.446A6.485,6.485,0,0,0,319.887,275.189Z" transform="translate(-319.289 -271.977)"/>
        <path id="Path_15355" data-name="Path 15355" d="M371.554,290.024a6.64,6.64,0,0,0,.082-1.214,6.323,6.323,0,0,1-.082.911c-.077.455-.212.911-.273,1.375a4.794,4.794,0,0,0-.035.751q.006-.225.035-.448C371.342,290.935,371.477,290.484,371.554,290.024Z" transform="translate(-363.099 -284.827)"/>
        <path id="Path_15356" data-name="Path 15356" d="M320.159,298.479a2.5,2.5,0,0,1-.191-.469.69.69,0,0,0-.018.167,1.619,1.619,0,0,0,.209.607,2.3,2.3,0,0,1,.19.8A2.353,2.353,0,0,0,320.159,298.479Z" transform="translate(-319.591 -292.63)"/>
        <path id="Path_15357" data-name="Path 15357" d="M363.462,287.022a1.991,1.991,0,0,1,.029.209v-.067a1.848,1.848,0,0,0-.033-.446c-.033-.159-.088-.317-.114-.478a.675.675,0,0,0-.014.109A2.8,2.8,0,0,0,363.462,287.022Z" transform="translate(-356.386 -282.647)"/>
        <path id="Path_15358" data-name="Path 15358" d="M357.276,317.857a.793.793,0,0,1-.065-.077.314.314,0,0,0-.044.2.376.376,0,0,0,.109.178,3.068,3.068,0,0,0,2.456.97c-.026-.1-.052-.2-.076-.3A3.063,3.063,0,0,1,357.276,317.857Z" transform="translate(-351.156 -309.399)"/>
        <path id="Path_15359" data-name="Path 15359" d="M338.273,264.762a.065.065,0,0,1,0-.017c.087-.559-.376-1.044-.842-1.366a5.021,5.021,0,0,0-1.148-.594,3.737,3.737,0,0,0-.771-.187,3.006,3.006,0,0,0-1.453.162,2.372,2.372,0,0,0-.54.288.732.732,0,0,0-.241.25.815.815,0,0,0-.064.363v.3a.814.814,0,0,1,.064-.363.731.731,0,0,1,.241-.25,2.372,2.372,0,0,1,.54-.288,3.006,3.006,0,0,1,1.453-.162,3.735,3.735,0,0,1,.771.187,5.025,5.025,0,0,1,1.148.594A1.813,1.813,0,0,1,338.273,264.762Z" transform="translate(-330.841 -262.572)"/>
        <path id="Path_15360" data-name="Path 15360" d="M328.034,275.106c-.152.29-.41.525-.536.832a1.383,1.383,0,0,0-.1.4,4.027,4.027,0,0,0-.023.428v.3a4.032,4.032,0,0,1,.023-.429,1.385,1.385,0,0,1,.1-.4,9.563,9.563,0,0,1,.536-.832,3.047,3.047,0,0,0,.235-1.5,2.532,2.532,0,0,1-.235,1.2Z" transform="translate(-325.894 -272.189)"/>
      </g>
      <path id="Path_15361" data-name="Path 15361" d="M327.755,254.785a.443.443,0,0,1-.073.08.7.7,0,0,1-.178.106c-.442.191-.424-.433-.654-.647a.785.785,0,0,0-.513-.152q-.666-.033-1.334-.059c-.742-.027-1.483-.041-2.224-.024q-.533.009-1.063.044a2.894,2.894,0,0,0-1.2.275,1.269,1.269,0,0,0-.32.25c-.083.091-.172.206-.287.228a2.733,2.733,0,0,1,1.872-2.154,3.757,3.757,0,0,1,5.161.645,2.346,2.346,0,0,1,.628.83A2.885,2.885,0,0,1,327.755,254.785Z" transform="translate(-284.079 -222.214)" opacity="0.1"/>
      <path id="Path_15362" data-name="Path 15362" d="M326.634,236.192c-.442.191-.424-.433-.654-.647a.785.785,0,0,0-.513-.152,40.463,40.463,0,0,0-4.621-.039,2.18,2.18,0,0,0-1.518.525c-.094.1-.193.237-.334.232-.047-.3-.08-.619-.1-.931a1.035,1.035,0,0,1,.018-.349c.038-.131.124-.241.169-.369a1.478,1.478,0,0,0,.046-.5,3.6,3.6,0,0,1,1.77-3.06,1.608,1.608,0,0,0,.369-.249,1.107,1.107,0,0,1,.126-.128.481.481,0,0,1,.293-.07h.216a1.961,1.961,0,0,0,.569-.152,1.241,1.241,0,0,1,.53-.1,1.761,1.761,0,0,1,.55.2,1.332,1.332,0,0,0,.257.093c.138.032.281.03.419.058a2.044,2.044,0,0,1,.628.279,3,3,0,0,1,.632.455,2.8,2.8,0,0,1,.489.8,5.7,5.7,0,0,1,.455,1.263,6.946,6.946,0,0,0,.354,1.879C326.956,235.586,327.118,235.984,326.634,236.192Z" transform="translate(-283.208 -203.739)" fill="#fed253"/>
      <path id="Path_15363" data-name="Path 15363" d="M319.25,258.506s3.147-2.863,7.833-.489C327.083,258.017,321.793,256.814,319.25,258.506Z" transform="translate(-283.519 -226.53)" opacity="0.1"/>
      <path id="Path_15364" data-name="Path 15364" d="M87.883,281.715c-.428-.7-1.072-1.343-.972-2.139a6.255,6.255,0,0,0,3.375-.651,27.882,27.882,0,0,0,3.092-1.784c.4-.251.794-.5,1.189-.724.625-.358,1.246-.759,1.882-1.11a7.1,7.1,0,0,1,2.863-.99,5.229,5.229,0,0,1,.557-.014c1.26.024,2.566.363,3.674-.2l.068-.036a9.8,9.8,0,0,0,1.624-1.406,7.26,7.26,0,0,1,1.258-.874c.818-.455,1.7-.82,2.541-1.249a3.853,3.853,0,0,0,.607-.389l.143-.114.032-.027c.035-.029.07-.058.1-.088l.065-.058.067-.061.052-.049.083-.079.009-.011.132-.131.053-.053.093-.1.055-.055c.093-.1.185-.193.279-.287s.222-.222.335-.326h0l.109-.1.032-.027.088-.073.041-.035.087-.067.043-.033c.042-.032.087-.062.131-.093a.955.955,0,0,1,.128-.074l-.284-.688.817-.337L123.6,294.523l-.818.337-6.443-15.636-.046.046a12.934,12.934,0,0,1-5.327,3.17h-.012a12.555,12.555,0,0,0-3.322,1.207,3.188,3.188,0,0,0-.858.821c-.222.316-.376.676-.607.979-.044.056-.093.111-.141.162a5.278,5.278,0,0,1-.911.723l-.144.1a29.517,29.517,0,0,1-3.051,1.881,12.041,12.041,0,0,1-1.9.789c-.475.152-.965.263-1.441.413a5.636,5.636,0,0,0-.928.373,6.787,6.787,0,0,0-2.007,1.782c-.512.616-1,1.269-1.559,1.831-.352.349-.888.68-1.313.475l-.087-.05c.014-.023.024-.046.036-.07a2.013,2.013,0,0,0-.633-2.134c-.058-.059-.117-.117-.178-.172l-.257-.228a6.18,6.18,0,0,1-1.31-1.315,4.289,4.289,0,0,1-.5-1.428,6.07,6.07,0,0,0-.642-2.06c-.255-.4-.635-.745-.911-1.131a1.723,1.723,0,0,1-.334-.78,5.064,5.064,0,0,1,.254-1.468,1.832,1.832,0,0,0,.032-.407A2.154,2.154,0,0,0,87.883,281.715Z" transform="translate(-86.443 -235.109)" fill="url(#linear-gradient-2)"/>
      <rect id="Rectangle_6804" data-name="Rectangle 6804" width="0.87" height="29.066" transform="translate(36.856 59.185) rotate(157.6)" fill="#d6d8e1"/>
      <path id="Path_15365" data-name="Path 15365" d="M91.231,293.006a5.952,5.952,0,0,1,.63,2.025,4.265,4.265,0,0,0,.5,1.406,6.109,6.109,0,0,0,1.287,1.292c.085.074.17.152.252.225.059.053.118.111.175.167a1.981,1.981,0,0,1,.622,2.1.578.578,0,0,1-.035.068.69.69,0,0,0,.083.049c.419.2.946-.121,1.292-.466.553-.553,1.031-1.193,1.533-1.8a6.646,6.646,0,0,1,1.973-1.753,5.459,5.459,0,0,1,.911-.367c.466-.152.949-.26,1.416-.405a11.924,11.924,0,0,0,1.864-.776,29.229,29.229,0,0,0,3.006-1.851l.143-.1a5.211,5.211,0,0,0,.9-.709c.049-.052.1-.1.14-.161.234-.3.387-.651.607-.962a3.135,3.135,0,0,1,.844-.808A12.33,12.33,0,0,1,112.632,289h.012a12.743,12.743,0,0,0,5.237-3.117.853.853,0,0,0,.263-.386.89.89,0,0,0-.179-.615c-.129-.222-.255-.443-.38-.668a29.833,29.833,0,0,1-1.5-3.147c-.1-.237-.188-.472-.278-.71q-.345-.911-.628-1.848c-.062-.206-.123-.414-.181-.622-.011-.039-.023-.082-.033-.127-.252-1.013-.589-3.382-1.627-2.673a6,6,0,0,0-.858.745c-.2.2-.4.416-.607.619a6.134,6.134,0,0,1-.536.469,3.937,3.937,0,0,1-.607.383c-.824.422-1.7.776-2.5,1.228a7.1,7.1,0,0,0-1.239.859,9.615,9.615,0,0,1-1.6,1.383l-.067.036c-1.09.554-2.373.222-3.613.2a5.46,5.46,0,0,0-.546.014,6.918,6.918,0,0,0-2.816.973c-.625.346-1.236.738-1.851,1.091-.389.223-.777.465-1.169.712a26.741,26.741,0,0,1-3.036,1.755,6.239,6.239,0,0,1-3.318.639c-.1.782.533,1.413.955,2.1a2.087,2.087,0,0,1,.357,1,1.762,1.762,0,0,1-.029.4,5.214,5.214,0,0,0-.249,1.445,1.677,1.677,0,0,0,.326.764C90.607,292.273,90.979,292.611,91.231,293.006Z" transform="translate(-88.199 -241.692)" fill="#f86d70"/>
      <path id="Path_15366" data-name="Path 15366" d="M306.931,414.71a13.233,13.233,0,0,0,2.678,1.778c1.348.618.455,2.834.455,2.834a2.444,2.444,0,0,1-2.429-1.063A5.664,5.664,0,0,1,306.931,414.71Z" transform="translate(-273.036 -360.234)" fill="#fbbebe"/>
      <path id="Path_15367" data-name="Path 15367" d="M722.3,544.61s-3.522,4.635-6.444,4.673-4.638,1.952-3.25,3.148,16.507-.683,16.507-.683.143-5.7-1.167-6.528S722.3,544.61,722.3,544.61Z" transform="translate(-616.748 -470.392)" fill="#444176"/>
      <path id="Path_15368" data-name="Path 15368" d="M1020.352,575.15s.539,3.671-1.126,6.174,3.009,3.469,3.009,3.469,3.4.946,3.643-2.409.167-5.92-.152-6.194a7.009,7.009,0,0,1-.585-2.16Z" transform="translate(-876.931 -495.368)" fill="#444176"/>
      <path id="Path_15369" data-name="Path 15369" d="M677.45,408.348s-.123-11.873,11.625-16.7l2.728-5.19,1.308-3.188a7.757,7.757,0,0,1,5.479-4.624l2.116-.475.654-2.757a7.754,7.754,0,0,1,6.2-5.851,21.7,21.7,0,0,1,3.9-.364,3.358,3.358,0,0,1,2.852,1.67h0s11.13-.123,11.624,5.937c0,0,1.114,5.564,2.722,6.553,0,0,2.72-.618,5.441,3.34l2.968,10.141s7.791,7.3,5.441,13.966c0,0-3.215,4.576-19.539,1.483,0,0-17.437,5.313-26.718-1.973C696.246,410.326,680.789,413.294,677.45,408.348Z" transform="translate(-587.342 -321.633)" fill="#a8a8a8"/>
      <path id="Path_15370" data-name="Path 15370" d="M728.77,534.188s2.474-3.463,2.35-5.937a78.663,78.663,0,0,1,.583-8.5" transform="translate(-630.872 -449.328)" fill="none" stroke="#000" stroke-miterlimit="10" stroke-width="1" opacity="0.1"/>
      <path id="Path_15371" data-name="Path 15371" d="M788.24,490.068s2.473-4.576,2.226-7.048c0,0,2.6-4.706,4.575-4.33" transform="translate(-681.314 -414.484)" fill="none" stroke="#000" stroke-miterlimit="10" stroke-width="1" opacity="0.1"/>
      <path id="Path_15372" data-name="Path 15372" d="M877.85,443.351s6.8-2.473,7.173-4.451" transform="translate(-757.32 -380.752)" fill="none" stroke="#000" stroke-miterlimit="10" stroke-width="1" opacity="0.1"/>
      <path id="Path_15373" data-name="Path 15373" d="M894.14,482.892s7.173-3.215,7.173-4.082H904.9s5.195,6.8,4.577,9.77" transform="translate(-771.138 -414.603)" fill="none" stroke="#000" stroke-miterlimit="10" stroke-width="1" opacity="0.1"/>
      <path id="Path_15374" data-name="Path 15374" d="M823.77,537.973s-6.925-.495-9.4,1.485-6.925,2.968-6.925,2.968-2.6,5.565-3.587,6.553a23.928,23.928,0,0,0-2.6,4.453" transform="translate(-692.357 -464.738)" fill="none" stroke="#000" stroke-miterlimit="10" stroke-width="1" opacity="0.1"/>
      <path id="Path_15375" data-name="Path 15375" d="M949.54,581.46a18.09,18.09,0,0,0,1.731,4.081c.99,1.485,2.473,6.8,2.473,6.8" transform="translate(-818.127 -501.671)" fill="none" stroke="#000" stroke-miterlimit="10" stroke-width="1" opacity="0.1"/>
      <path id="Path_15376" data-name="Path 15376" d="M1026.11,631.15s1.57,4.367,2.95,4.41" transform="translate(-883.074 -543.817)" fill="none" stroke="#000" stroke-miterlimit="10" stroke-width="1" opacity="0.1"/>
      <path id="Path_15377" data-name="Path 15377" d="M958.38,507.66s4.077,1.1,5.782,3.772,6.912,5.092,6.912,5.092" transform="translate(-825.625 -439.074)" fill="none" stroke="#000" stroke-miterlimit="10" stroke-width="1" opacity="0.1"/>
      <path id="Path_15378" data-name="Path 15378" d="M969.9,421s0,5.688,1.608,5.688a45.577,45.577,0,0,1,5.195.618" transform="translate(-835.397 -365.569)" fill="none" stroke="#000" stroke-miterlimit="10" stroke-width="1" opacity="0.1"/>
      <path id="Path_15379" data-name="Path 15379" d="M903.954,376.5s-.411,9.826-2.514,12.371" transform="translate(-777.329 -327.825)" fill="none" stroke="#000" stroke-miterlimit="10" stroke-width="1" opacity="0.1"/>
      <g id="Group_10501" data-name="Group 10501" transform="translate(98.014 47.449)" opacity="0.05">
        <path id="Path_15380" data-name="Path 15380" d="M916.423,396.061l-2.968-10.141c-2.72-3.958-5.441-3.34-5.441-3.34-1.608-.99-2.72-6.555-2.72-6.555-.495-6.06-11.625-5.936-11.625-5.936h0a3.358,3.358,0,0,0-2.858-1.67c-.525,0-1.063.017-1.6.061q.455.045.873.129l.865,1.485s11.129-.124,11.624,5.936c0,0,1.114,5.565,2.722,6.555,0,0,2.72-.619,5.441,3.34l2.968,10.141s7.791,7.3,5.441,13.966c0,0-1.586,2.257-8.185,2.531,8.9.326,10.906-2.531,10.906-2.531C924.213,403.357,916.423,396.061,916.423,396.061Z" transform="translate(-864.97 -368.42)"/>
        <path id="Path_15381" data-name="Path 15381" d="M737.453,639.29a57.719,57.719,0,0,1-7.923.867,50.515,50.515,0,0,0,8.4-.5C737.767,639.531,737.609,639.413,737.453,639.29Z" transform="translate(-729.53 -598.17)"/>
        <path id="Path_15382" data-name="Path 15382" d="M892.437,652.33a50.8,50.8,0,0,1-11.677,1.846,49.525,49.525,0,0,0,13.326-1.553C893.548,652.533,893,652.432,892.437,652.33Z" transform="translate(-857.802 -609.231)"/>
      </g>
      <path id="Path_15383" data-name="Path 15383" d="M306.73,769.119s3.4-.1,4.427-.835,5.231-1.6,5.486-.431,5.111,5.822,1.271,5.854-8.922-.6-9.945-1.222S306.73,769.119,306.73,769.119Z" transform="translate(-272.9 -659.282)" fill="#a8a8a8"/>
      <path id="Path_15384" data-name="Path 15384" d="M317.983,783.578c-3.841.032-8.923-.6-9.946-1.214-.779-.475-1.09-2.178-1.193-2.963h-.114s.216,2.743,1.239,3.366,6.106,1.252,9.945,1.222c1.11-.009,1.492-.4,1.471-.988C319.231,783.352,318.808,783.572,317.983,783.578Z" transform="translate(-272.9 -669.562)" opacity="0.2"/>
      <path id="Path_15385" data-name="Path 15385" d="M765.205,701.2s-4.006-.8-5.073-1.87-5.875-2.936-6.409-1.6-7.209,5.875-2.67,6.679,10.681,1.063,12.017.534S765.205,701.2,765.205,701.2Z" transform="translate(-648.437 -599.899)" fill="#a8a8a8"/>
      <path id="Path_15386" data-name="Path 15386" d="M751.058,725.707c4.54.8,10.681,1.063,12.017.533,1.016-.407,1.723-2.36,2-3.27l.134.029s-.8,3.2-2.136,3.737-7.477.267-12.017-.534c-1.31-.231-1.685-.774-1.544-1.46C749.626,725.194,750.083,725.539,751.058,725.707Z" transform="translate(-648.443 -621.698)" opacity="0.2"/>
      <path id="Path_15387" data-name="Path 15387" d="M546.036,141.066h-.953a.668.668,0,0,0,0-1.336h-7.724a.668.668,0,1,0,0,1.336h.953a.668.668,0,0,0,0,1.334h-1.334a.668.668,0,1,0,0,1.336H544.7a.668.668,0,1,0,0-1.336h1.334a.668.668,0,1,0,0-1.334Z" transform="translate(-467.628 -126.998)" fill="#6c63ff" opacity="0.1"/>
      <path id="Path_15388" data-name="Path 15388" d="M743.614,295.88h-.953a.668.668,0,0,0,0-1.334h-7.731a.668.668,0,1,0,0,1.334h.953a.668.668,0,0,0,0,1.334h-1.334a.668.668,0,1,0,0,1.336h7.722a.668.668,0,0,0,0-1.336h1.344a.668.668,0,1,0,0-1.334Z" transform="translate(-635.206 -258.311)" fill="#6c63ff" opacity="0.1"/>
      <path id="Path_15389" data-name="Path 15389" d="M450.809,267.24h-.953a.668.668,0,1,0,0-1.334h-7.725a.668.668,0,1,0,0,1.334h.953a.668.668,0,1,0,0,1.334h-1.336a.668.668,0,1,0,0,1.336h7.724a.668.668,0,1,0,0-1.336h1.334a.668.668,0,1,0,0-1.334Z" transform="translate(-386.855 -234.019)" fill="#6c63ff" opacity="0.1"/>
    </g>
  </g>
</svg>
