<svg xmlns="http://www.w3.org/2000/svg" width="383.611" height="247.336" viewBox="0 0 383.611 247.336">
  <g id="Group_10152" data-name="Group 10152" transform="translate(0)">
    <path id="Path_2217" data-name="Path 2217" d="M504.732,369.242H130.139a4.514,4.514,0,0,1-4.509-4.509V126.415a4.514,4.514,0,0,1,4.509-4.509H504.732a4.514,4.514,0,0,1,4.509,4.509V364.733a4.514,4.514,0,0,1-4.509,4.509ZM130.139,123.69a2.728,2.728,0,0,0-2.725,2.725V364.733a2.728,2.728,0,0,0,2.725,2.725H504.732a2.728,2.728,0,0,0,2.725-2.725V126.415a2.728,2.728,0,0,0-2.725-2.725Z" transform="translate(-125.63 -121.906)" fill="#e6e6e6"/>
    <path id="Path_2218" data-name="Path 2218" d="M462.179,180.987H263.707a3.681,3.681,0,0,0-3.676,3.676V354.377a3.681,3.681,0,0,0,3.676,3.676H462.179a3.681,3.681,0,0,0,3.676-3.676V184.663A3.681,3.681,0,0,0,462.179,180.987Zm2.2,173.39a2.211,2.211,0,0,1-2.2,2.21H263.707a2.207,2.207,0,0,1-2.2-2.21V184.663a2.207,2.207,0,0,1,2.2-2.21H462.179a2.211,2.211,0,0,1,2.2,2.21Z" transform="translate(-180.105 -145.852)" fill="#3f3d56"/>
    <path id="Path_2219" data-name="Path 2219" d="M365.348,439.039c0,.633-.017,1.266-.05,1.882a36.224,36.224,0,0,1-72.349,0c-.033-.616-.05-1.249-.05-1.882a36.224,36.224,0,0,1,72.449,0Z" transform="translate(-146.285 -336.366)" fill="#d90b0b"/>
    <path id="Path_2220" data-name="Path 2220" d="M492.208,411.2H374.572a2.5,2.5,0,0,0,0,4.992H492.208a2.5,2.5,0,1,0,.189-4.992Q492.3,411.2,492.208,411.2Z" transform="translate(-250.601 -239.161)" fill="#d90b0b"/>
    <path id="Path_2221" data-name="Path 2221" d="M425.129,436.384H374.511a2.492,2.492,0,0,0,0,4.985h50.618a2.492,2.492,0,1,0,.008-4.985Z" transform="translate(-250.541 -249.368)" fill="#e6e6e6"/>
    <circle id="Ellipse_435" data-name="Ellipse 435" cx="3.1" cy="3.1" r="3.1" transform="translate(12.905 9.589)" fill="#d90b0b"/>
    <circle id="Ellipse_436" data-name="Ellipse 436" cx="3.1" cy="3.1" r="3.1" transform="translate(23.755 9.589)" fill="#fcef59"/>
    <circle id="Ellipse_437" data-name="Ellipse 437" cx="3.1" cy="3.1" r="3.1" transform="translate(34.605 9.589)" fill="#41d8b6"/>
    <g id="Group_10154" data-name="Group 10154" transform="translate(182.839 72.546) rotate(45)">
      <path id="Path_2221-2" data-name="Path 2221" d="M36.56,0H6.03a6.03,6.03,0,0,0,0,12.061H36.56A6.03,6.03,0,0,0,36.58,0Z" transform="translate(0 15.268)" fill="#fff"/>
      <path id="Path_2221-3" data-name="Path 2221" d="M36.56,0H6.03a6.03,6.03,0,0,0,0,12.061h30.53A6.03,6.03,0,0,0,36.581,0Z" transform="translate(27.332 0) rotate(90)" fill="#fff"/>
    </g>
  </g>
</svg>
