<svg xmlns="http://www.w3.org/2000/svg" width="20.018" height="20.71" viewBox="0 0 20.018 20.71">
  <g id="Group_7481" data-name="Group 7481" transform="translate(0 1.707)">
    <g id="Group_7478" data-name="Group 7478" transform="translate(9.891 0)">
      <path id="Path_12112" data-name="Path 12112" d="M0,3.949,3.979,0,7.959,3.948" transform="translate(2.792 0) rotate(45)" fill="none" stroke="#64dbf7" stroke-linecap="round" stroke-linejoin="round" stroke-width="2"/>
      <path id="Path_12113" data-name="Path 12113" d="M0,0V6.878" transform="translate(4.924 3.496) rotate(45)" fill="none" stroke="#64dbf7" stroke-linecap="round" stroke-linejoin="round" stroke-width="2"/>
    </g>
    <g id="Path_12114" data-name="Path 12114" transform="translate(12.459 6.544) rotate(90)" fill="none" stroke-miterlimit="10">
      <path d="M12.459,6.23a6.23,6.23,0,1,0-6.23,6.23A6.231,6.231,0,0,0,12.459,6.23Z" stroke="none"/>
      <path d="M 6.229581356048584 10.45916175842285 C 8.56178092956543 10.45916175842285 10.45916175842285 8.56178092956543 10.45916175842285 6.229581356048584 C 10.45916175842285 3.89738130569458 8.56178092956543 2.000001430511475 6.229581356048584 2.000001430511475 C 3.89738130569458 2.000001430511475 2.000001430511475 3.89738130569458 2.000001430511475 6.229581356048584 C 2.000001430511475 8.56178092956543 3.89738130569458 10.45916175842285 6.229581356048584 10.45916175842285 M 6.229581356048584 12.45916175842285 C 2.790391445159912 12.45916175842285 1.356048528577958e-06 9.668771743774414 1.356048528577958e-06 6.229581356048584 C 1.356048528577958e-06 2.790391445159912 2.790391445159912 1.356048528577958e-06 6.229581356048584 1.356048528577958e-06 C 9.668771743774414 1.356048528577958e-06 12.45916175842285 2.790391445159912 12.45916175842285 6.229581356048584 C 12.45916175842285 9.668771743774414 9.668771743774414 12.45916175842285 6.229581356048584 12.45916175842285 Z" stroke="none" fill="#64dbf7"/>
    </g>
  </g>
</svg>
