<svg xmlns="http://www.w3.org/2000/svg" width="21.076" height="12.459" viewBox="0 0 21.076 12.459"><g transform="translate(-396.185 -358.875)"><g transform="translate(405.017 353.563)"><path d="M0,3.949,3.979,0,7.959,3.948" transform="translate(11.243 7.998) rotate(90)" fill="none" stroke="#222b45" stroke-linecap="round" stroke-linejoin="round" stroke-width="2"/><path d="M0,3.949H4.039" transform="translate(9.243 9.958) rotate(90)" fill="none" stroke="#222b45" stroke-linecap="round" stroke-linejoin="round" stroke-width="2"/><path d="M0,0V6.878" transform="translate(10.278 11.978) rotate(90)" fill="none" stroke="#222b45" stroke-linecap="round" stroke-linejoin="round" stroke-width="2"/></g><g transform="translate(408.644 358.875) rotate(90)" fill="none" stroke-miterlimit="10"><path d="M12.459,6.23a6.23,6.23,0,1,0-6.23,6.23A6.231,6.231,0,0,0,12.459,6.23Z" stroke="none"/><path d="M 6.229581356048584 10.45916175842285 C 8.56178092956543 10.45916175842285 10.45916175842285 8.56178092956543 10.45916175842285 6.229581356048584 C 10.45916175842285 3.89738130569458 8.56178092956543 2.000001430511475 6.229581356048584 2.000001430511475 C 3.89738130569458 2.000001430511475 2.000001430511475 3.89738130569458 2.000001430511475 6.229581356048584 C 2.000001430511475 8.56178092956543 3.89738130569458 10.45916175842285 6.229581356048584 10.45916175842285 M 6.229581356048584 12.45916175842285 C 2.790391445159912 12.45916175842285 1.356048528577958e-06 9.668771743774414 1.356048528577958e-06 6.229581356048584 C 1.356048528577958e-06 2.790391445159912 2.790391445159912 1.356048528577958e-06 6.229581356048584 1.356048528577958e-06 C 9.668771743774414 1.356048528577958e-06 12.45916175842285 2.790391445159912 12.45916175842285 6.229581356048584 C 12.45916175842285 9.668771743774414 9.668771743774414 12.45916175842285 6.229581356048584 12.45916175842285 Z" stroke="none" fill="#222b45"/></g></g></svg>