<svg id="Group_7480" data-name="Group 7480" xmlns="http://www.w3.org/2000/svg" width="12.459" height="20.674" viewBox="0 0 12.459 20.674">
  <path id="Path_12112" data-name="Path 12112" d="M0,0H7.959" transform="translate(10.209 15.877) rotate(180)" fill="none" stroke="#f764b3" stroke-linecap="round" stroke-linejoin="round" stroke-width="2"/>
  <path id="Path_12113" data-name="Path 12113" d="M0,0V7.692" transform="translate(6.23 19.674) rotate(180)" fill="none" stroke="#f764b3" stroke-linecap="round" stroke-linejoin="round" stroke-width="2"/>
  <g id="Path_12114" data-name="Path 12114" transform="translate(12.459 12.459) rotate(180)" fill="none" stroke-miterlimit="10">
    <path d="M12.459,6.23a6.23,6.23,0,1,0-6.23,6.23A6.231,6.231,0,0,0,12.459,6.23Z" stroke="none"/>
    <path d="M 6.229581356048584 10.45916175842285 C 8.56178092956543 10.45916175842285 10.45916175842285 8.56178092956543 10.45916175842285 6.229581356048584 C 10.45916175842285 3.89738130569458 8.56178092956543 2.000001430511475 6.229581356048584 2.000001430511475 C 3.89738130569458 2.000001430511475 2.000001430511475 3.89738130569458 2.000001430511475 6.229581356048584 C 2.000001430511475 8.56178092956543 3.89738130569458 10.45916175842285 6.229581356048584 10.45916175842285 M 6.229581356048584 12.45916175842285 C 2.790391445159912 12.45916175842285 1.356048528577958e-06 9.668771743774414 1.356048528577958e-06 6.229581356048584 C 1.356048528577958e-06 2.790391445159912 2.790391445159912 1.356048528577958e-06 6.229581356048584 1.356048528577958e-06 C 9.668771743774414 1.356048528577958e-06 12.45916175842285 2.790391445159912 12.45916175842285 6.229581356048584 C 12.45916175842285 9.668771743774414 9.668771743774414 12.45916175842285 6.229581356048584 12.45916175842285 Z" stroke="none" fill="#f764b3"/>
  </g>
</svg>
