<svg xmlns="http://www.w3.org/2000/svg" width="10.981" height="18" viewBox="0 0 10.981 18">
  <path id="Path_15119" data-name="Path 15119" d="M8136.457,18081.5a1.069,1.069,0,1,1,1.069-1.07A1.07,1.07,0,0,1,8136.457,18081.5Zm-.034-3.582a1,1,0,0,1-1.059-1.125l-.015-.268c-.085-2.172,1.225-3.432,2.652-4.469,1.391-1.043,2.4-1.8,2.4-3.463a2.828,2.828,0,0,0-1.074-2.334,3.809,3.809,0,0,0-2.306-.707c-2,0-3.4,1.221-3.4,2.971a1,1,0,0,1-1.1,1.02.955.955,0,0,1-1.015-.912v-.107a4.739,4.739,0,0,1,1.312-3.482,5.933,5.933,0,0,1,4.2-1.541,5.993,5.993,0,0,1,3.81,1.242,4.725,4.725,0,0,1,1.658,3.781,5.406,5.406,0,0,1-2.523,4.727c-.11.08-.24.176-.367.277-1.487,1.111-2.1,1.572-2.1,3.291a1.12,1.12,0,0,1-.292.811A1.08,1.08,0,0,1,8136.423,18077.916Z" transform="translate(-8131.504 -18063.498)" fill="#fff"/>
</svg>
