<svg width="93" height="93" viewBox="0 0 93 93" fill="none" xmlns="http://www.w3.org/2000/svg">
<path d="M56.1971 63.9091L32.7129 87.3933C29.1227 90.9832 24.2535 92.9999 19.1764 92.9999C14.0993 92.9999 9.23008 90.9832 5.63986 87.3933C5.32297 87.0764 5.01753 86.75 4.72737 86.414C4.24924 85.868 3.80368 85.2943 3.393 84.6959C1.88676 82.5171 0.856451 80.0454 0.369192 77.4418C0.260381 76.8749 0.178294 76.3022 0.122933 75.7237C0.0637554 75.1071 0.0338479 74.4848 0.0332116 73.8568C0.0315614 72.1004 0.270495 70.3521 0.743349 68.6606C0.905619 68.0783 1.09588 67.5056 1.31413 66.9425C2.27822 64.4574 3.75172 62.2017 5.63986 60.3203L15.8853 50.0748C16.4222 49.5379 17.1504 49.2363 17.9098 49.2363C18.6691 49.2363 19.3973 49.5379 19.9342 50.0748C20.4712 50.6117 20.7728 51.34 20.7728 52.0993C20.7728 52.8586 20.4712 53.5868 19.9342 54.1237L9.68879 64.3692C8.91462 65.1422 8.23708 66.0063 7.67101 66.9425C6.41384 69.0292 5.75291 71.4206 5.76013 73.8568C5.76032 74.4813 5.80306 75.1051 5.88803 75.7237C5.96775 76.3038 6.08638 76.8777 6.24311 77.4418C6.86859 79.7033 8.07631 81.7611 9.74571 83.4099C11.4151 85.0587 13.4878 86.2407 15.7568 86.8381C18.0259 87.4354 20.4119 87.4272 22.6768 86.8141C24.9416 86.2011 27.006 85.0047 28.664 83.3444L34.5665 77.4418L45.0658 66.9425L52.1481 59.8602C54.3749 57.6272 55.7455 54.6823 56.0202 51.5408C56.2948 48.3992 55.456 45.2611 53.6505 42.6756C53.2254 42.0524 53.0633 41.2866 53.1995 40.5446C53.3357 39.8025 53.7591 39.1442 54.3779 38.7125C54.9966 38.2808 55.7606 38.1107 56.5041 38.239C57.2475 38.3674 57.9103 38.7838 58.3485 39.3979C60.9212 43.0872 62.1154 47.5635 61.7221 52.0441C61.3288 56.5246 59.3732 60.7244 56.1971 63.9091V63.9091Z" fill="#41D8B6"/>
<path d="M93.0002 19.1763C93.0002 19.3175 92.9983 19.4588 92.9944 19.6001C92.9453 22.099 92.405 24.5638 91.4043 26.8542C91.1479 27.4414 90.8612 28.0148 90.5452 28.5722C89.6875 30.0891 88.6272 31.4821 87.3935 32.7128L77.1481 42.9582C76.6109 43.4939 75.8831 43.7945 75.1245 43.7939C74.3658 43.7934 73.6385 43.4918 73.102 42.9554C72.5656 42.4189 72.264 41.6915 72.2635 40.9329C72.2629 40.1743 72.5635 39.4465 73.0992 38.9093L83.3446 28.6639C83.3751 28.6333 83.4057 28.6028 83.4343 28.5722C85.7986 26.1726 87.1673 22.9673 87.2656 19.6001C87.2714 19.4588 87.2733 19.3175 87.2733 19.1763C87.2733 18.741 87.2529 18.3096 87.2122 17.882C86.9132 14.7847 85.5458 11.888 83.3446 9.68869C83.1403 9.48443 82.9323 9.2878 82.7166 9.10072C80.2674 6.94758 77.118 5.76003 73.857 5.76003C70.596 5.76003 67.4466 6.94758 64.9975 9.10072C64.7818 9.2878 64.5737 9.48443 64.3694 9.68869L40.8853 33.1729C38.3731 35.6913 36.9623 39.1033 36.9623 42.6604C36.9623 46.2176 38.3731 49.6296 40.8853 52.148C41.4222 52.6849 41.7238 53.4132 41.7238 54.1725C41.7238 54.9318 41.4222 55.66 40.8853 56.197C40.3483 56.7339 39.6201 57.0355 38.8608 57.0355C38.1015 57.0355 37.3733 56.7339 36.8363 56.197C33.2515 52.604 31.2383 47.7359 31.2383 42.6604C31.2383 37.585 33.2515 32.7168 36.8363 29.1239L60.3205 5.63976C62.3636 3.6009 64.8409 2.0499 67.5674 1.10257C70.2939 0.155232 73.1992 -0.163968 76.0663 0.168798C78.9335 0.501564 81.6884 1.4777 84.1255 3.02433C86.5625 4.57095 88.6187 6.64811 90.1405 9.10072C90.4872 9.65611 90.8039 10.2296 91.0893 10.8188C92.1631 13.0301 92.7972 15.4289 92.9563 17.882C92.9849 18.3115 92.9995 18.7429 93.0002 19.1763Z" fill="#41D8B6"/>
<path d="M76.7741 18.8364C76.774 19.0928 76.7484 19.3486 76.6977 19.6C76.5215 20.4622 76.0529 21.2372 75.3711 21.7938C74.6893 22.3503 73.8362 22.6543 72.9561 22.6543C72.076 22.6543 71.2229 22.3503 70.5411 21.7938C69.8594 21.2372 69.3907 20.4622 69.2145 19.6C69.0996 19.0313 69.1146 18.444 69.2584 17.8819C69.49 16.9813 70.0423 16.1961 70.8117 15.6738C71.5811 15.1515 72.5146 14.9279 73.4371 15.0451C74.3597 15.1622 75.2077 15.6121 75.8221 16.3101C76.4365 17.0082 76.775 17.9065 76.7741 18.8364V18.8364Z" fill="#41D8B6"/>
<path d="M20.4591 76.6782C20.4591 76.9346 20.4335 77.1904 20.3828 77.4418C20.2066 78.304 19.738 79.079 19.0562 79.6356C18.3744 80.1921 17.5213 80.4961 16.6412 80.4961C15.7611 80.4961 14.908 80.1921 14.2262 79.6356C13.5444 79.079 13.0758 78.304 12.8996 77.4418C12.7846 76.8731 12.7997 76.2858 12.9435 75.7237C13.1751 74.8231 13.7274 74.0379 14.4968 73.5156C15.2661 72.9933 16.1997 72.7697 17.1222 72.8869C18.0447 73.004 18.8928 73.4539 19.5071 74.1519C20.1215 74.85 20.46 75.7483 20.4591 76.6782V76.6782Z" fill="#41D8B6"/>
<path d="M56.8597 9.10059H64.9976C64.7819 9.28767 64.5738 9.48429 64.3696 9.68855L63.2395 10.8187H55.1416L56.8597 9.10059Z" fill="#6C63FF"/>
<path d="M91.0891 10.8187H84.3542C84.0392 10.4232 83.702 10.0459 83.3444 9.68855C83.1401 9.48429 82.932 9.28767 82.7163 9.10059H90.1403C90.4869 9.65597 90.8036 10.2295 91.0891 10.8187V10.8187Z" fill="#6C63FF"/>
<path d="M48.0784 17.8818H56.1763L54.4582 19.5999H46.3604L48.0784 17.8818Z" fill="#6C63FF"/>
<path d="M76.6538 17.8818C76.7977 18.4439 76.8127 19.0312 76.6977 19.5999H69.2145C69.0996 19.0312 69.1146 18.4439 69.2584 17.8818H76.6538Z" fill="#6C63FF"/>
<path d="M92.9999 19.1761C92.9999 19.3174 92.998 19.4586 92.9942 19.5999H87.2654C87.2711 19.4586 87.273 19.3174 87.273 19.1761C87.273 18.7409 87.2526 18.3094 87.2119 17.8818H92.956C92.9846 18.3114 92.9993 18.7428 92.9999 19.1761Z" fill="#6C63FF"/>
<path d="M39.1063 26.8545H47.2041L45.486 28.5726H37.3882L39.1063 26.8545Z" fill="#6C63FF"/>
<path d="M91.404 26.8545C91.1477 27.4417 90.8609 28.0152 90.545 28.5726H83.4341C83.9582 28.0412 84.4365 27.4664 84.8639 26.8545H91.404Z" fill="#6C63FF"/>
<path d="M7.67082 66.9424C7.33892 67.4933 7.04736 68.0675 6.79842 68.6605H0.743164C0.905434 68.0782 1.09569 67.5055 1.31394 66.9424H7.67082Z" fill="#6C63FF"/>
<path d="M53.1636 66.9424L51.4455 68.6605H43.3477L45.0657 66.9424H53.1636Z" fill="#6C63FF"/>
<path d="M6.24321 77.4417H0.369306C0.260494 76.8747 0.178407 76.3021 0.123047 75.7236H5.88814C5.96786 76.3036 6.08648 76.8776 6.24321 77.4417V77.4417Z" fill="#6C63FF"/>
<path d="M20.4591 76.6781C20.4591 76.9346 20.4335 77.1903 20.3828 77.4417H12.8996C12.7846 76.873 12.7997 76.2857 12.9435 75.7236H20.3389C20.4187 76.0355 20.4591 76.3562 20.4591 76.6781Z" fill="#6C63FF"/>
<path d="M44.3823 75.7236L42.6643 77.4417H34.5664L36.2845 75.7236H44.3823Z" fill="#6C63FF"/>
<path d="M14.4346 86.4144H4.72744C4.24931 85.8684 3.80375 85.2947 3.39307 84.6963H11.2657C12.239 85.4103 13.3051 85.9883 14.4346 86.4144V86.4144Z" fill="#6C63FF"/>
<path d="M35.4105 84.6963L33.6924 86.4144H23.9185C25.0479 85.9883 26.114 85.4103 27.0873 84.6963H35.4105Z" fill="#6C63FF"/>
</svg>
