<svg id="Group_9947" data-name="Group 9947" xmlns="http://www.w3.org/2000/svg" width="541.246" height="354.798" viewBox="0 0 541.246 354.798">
  <path id="Path_14944" data-name="Path 14944" d="M469.514,645.07c1.958-15.744,11.715-31.256,26.73-36.38a73.1,73.1,0,0,0,0,50.186c2.307,6.241,5.523,12.942,3.353,19.232-1.35,3.914-4.654,6.908-8.346,8.781s-7.791,2.765-11.838,3.639l-.8.659C472.2,676.68,467.556,660.814,469.514,645.07Z" transform="translate(-275.711 -337.641)" fill="#f5f7fb"/>
  <path id="Path_14945" data-name="Path 14945" d="M502.783,608.756a62.479,62.479,0,0,0-15.532,35.163,26.9,26.9,0,0,0,.306,8.424A15.431,15.431,0,0,0,491.4,659.5c1.73,1.9,3.719,3.644,4.957,5.932a9.449,9.449,0,0,1,.462,7.714c-1.093,3.134-3.247,5.689-5.44,8.114-2.435,2.693-5.007,5.451-6.042,9.021-.125.432-.789.213-.664-.219,1.8-6.211,7.83-9.739,10.705-15.333,1.342-2.61,1.9-5.641.647-8.4-1.1-2.409-3.15-4.209-4.918-6.119a16.467,16.467,0,0,1-4.013-6.859,24.872,24.872,0,0,1-.629-8.382,60.615,60.615,0,0,1,4.427-18.421,63.585,63.585,0,0,1,11.434-18.323C502.62,607.9,503.081,608.423,502.783,608.756Z" transform="translate(-282.102 -337.409)" fill="#fff"/>
  <path id="Path_14946" data-name="Path 14946" d="M484.4,654.566a9.374,9.374,0,0,1-7.135-9.819.35.35,0,0,1,.7.035,8.68,8.68,0,0,0,6.656,9.12C485.057,654.006,484.836,654.669,484.4,654.566Z" transform="translate(-279.063 -352.287)" fill="#fff"/>
  <path id="Path_14947" data-name="Path 14947" d="M494.254,686.355a18.067,18.067,0,0,0,8.068-10.405c.127-.432.791-.212.664.219a18.793,18.793,0,0,1-8.418,10.811c-.388.23-.7-.4-.315-.625Z" transform="translate(-285.964 -365.111)" fill="#fff"/>
  <path id="Path_14948" data-name="Path 14948" d="M500.639,628.885a5.306,5.306,0,0,0,5.028-.255c.385-.235.7.391.314.624a5.946,5.946,0,0,1-5.562.295.361.361,0,0,1-.222-.442A.351.351,0,0,1,500.639,628.885Z" transform="translate(-288.466 -345.792)" fill="#fff"/>
  <path id="Path_14949" data-name="Path 14949" d="M548.412,655.178c-.236.153-.472.307-.708.466a69.87,69.87,0,0,0-8.935,6.976c-.219.195-.437.4-.649.6a73.667,73.667,0,0,0-16,21.9,71.529,71.529,0,0,0-3.919,10.139c-1.446,4.8-2.632,10.115-5.494,14.04a12.276,12.276,0,0,1-.956,1.18H485.886c-.059-.03-.118-.053-.177-.083l-1.033.047c.042-.183.089-.372.13-.555.024-.106.053-.212.077-.319.018-.071.035-.142.047-.207.006-.024.012-.047.018-.065.012-.065.03-.124.042-.183q.389-1.584.8-3.169c0-.006,0-.006.006-.012a105.186,105.186,0,0,1,8.852-23.24c.118-.218.236-.443.366-.661a68.264,68.264,0,0,1,6.132-9.3,60.379,60.379,0,0,1,4.019-4.6,50.179,50.179,0,0,1,12.558-9.407c9.277-4.9,20.018-6.775,29.932-3.783C547.91,655.018,548.158,655.095,548.412,655.178Z" transform="translate(-282.111 -356.008)" fill="#f5f7fb"/>
  <path id="Path_14950" data-name="Path 14950" d="M548.437,656.407a62.479,62.479,0,0,0-33.572,18.724,26.908,26.908,0,0,0-4.828,6.911,15.432,15.432,0,0,0-1.245,8.026c.237,2.559.776,5.149.386,7.721a9.449,9.449,0,0,1-4.276,6.437c-2.76,1.845-6.018,2.588-9.229,3.2-3.565.684-7.28,1.338-10.255,3.565-.36.27-.758-.305-.4-.575,5.177-3.875,12.115-3.062,17.779-5.8,2.643-1.276,4.917-3.357,5.571-6.314.573-2.586.019-5.258-.243-7.846a16.468,16.468,0,0,1,.925-7.893A24.875,24.875,0,0,1,513.6,675.5a60.612,60.612,0,0,1,14.625-12.042,63.584,63.584,0,0,1,20.161-7.746C548.824,655.622,548.875,656.32,548.437,656.407Z" transform="translate(-282.194 -356.909)" fill="#fff"/>
  <path id="Path_14951" data-name="Path 14951" d="M538.787,674.58A9.374,9.374,0,0,1,539,662.444c.3-.337.836.111.537.448a8.68,8.68,0,0,0-.177,11.29C539.648,674.529,539.072,674.925,538.787,674.58Z" transform="translate(-303.418 -359.623)" fill="#fff"/>
  <path id="Path_14952" data-name="Path 14952" d="M524.626,709.317a18.068,18.068,0,0,0,12.707-3.451c.361-.269.759.307.4.575a18.793,18.793,0,0,1-13.23,3.564c-.448-.05-.321-.737.125-.688Z" transform="translate(-298.319 -377.44)" fill="#fff"/>
  <path id="Path_14953" data-name="Path 14953" d="M568.642,664a5.306,5.306,0,0,0,4.169,2.824c.449.044.321.732-.125.688a5.946,5.946,0,0,1-4.618-3.114.362.362,0,0,1,.088-.487A.352.352,0,0,1,568.642,664Z" transform="translate(-316.265 -360.249)" fill="#fff"/>
  <path id="Path_14954" data-name="Path 14954" d="M614.7,156.028a4.136,4.136,0,0,0-4.131,4.131V334.843a4.135,4.135,0,0,0,4.131,4.131H870.824a4.136,4.136,0,0,0,4.131-4.131V160.159a4.136,4.136,0,0,0-4.131-4.131Z" transform="translate(-333.708 -152.116)" fill="#f5f7fb"/>
  <path id="Path_14955" data-name="Path 14955" d="M624.7,166.028a4.136,4.136,0,0,0-4.131,4.131V333.04a4.136,4.136,0,0,0,4.131,4.131H869.021a4.136,4.136,0,0,0,4.131-4.131V170.159a4.136,4.136,0,0,0-4.131-4.131Z" transform="translate(-337.807 -156.215)" fill="#fff"/>
  <path id="Path_14956" data-name="Path 14956" d="M864.516,226.04c-5.618-2.194-11.676,3.308-12.993,9.194s.368,11.973.739,17.993-1.207,13.011-6.578,15.755c-6.176,3.156-13.421-.947-20.328-1.572a20.455,20.455,0,0,0-18.016,8.161c-5.7,7.815-5.407,19.164-12.148,26.1-5.857,6.025-15.4,6.81-23.6,4.946s-15.725-5.911-23.782-8.3-17.383-2.884-24.287,1.9c-7.208,5-10.415,14.8-18.328,18.587-5.595,2.678-12.218,1.656-18.2.035s-12.025-3.809-18.206-3.289-12.624,4.785-13.114,10.969l212.135-.592q1.445-42,2.891-84C870.91,235.851,870.186,228.254,864.516,226.04Z" transform="translate(-352.195 -180.609)" fill="#6135fb" opacity="0.1"/>
  <path id="Path_14957" data-name="Path 14957" d="M471.261,456.967a7.121,7.121,0,0,1,5.34-9.525l3.727-25.031,9.793,8.777-5.04,22.424a7.16,7.16,0,0,1-13.819,3.354Z" transform="translate(-276.423 -261.294)" fill="#ffb6b6"/>
  <path id="Path_14958" data-name="Path 14958" d="M346.86,462.611a7.121,7.121,0,0,0-2.346-10.665l3.7-25.035-11.918,5.558-1.683,22.922a7.16,7.16,0,0,0,12.251,7.22Z" transform="translate(-220.357 -263.138)" fill="#ffb6b6"/>
  <path id="Path_14959" data-name="Path 14959" d="M303.126,552.293h11.058l5.261-42.652h-16.32Z" transform="translate(-124.236 -208.878)" fill="#ffb6b6"/>
  <path id="Path_14960" data-name="Path 14960" d="M439.779,725.2h21.778a13.878,13.878,0,0,1,13.878,13.877v.452H439.779Z" transform="translate(-263.71 -385.39)" fill="#2f2e41"/>
  <path id="Path_14961" data-name="Path 14961" d="M203.126,552.293h11.058l5.261-42.652h-16.32Z" transform="translate(-83.251 -208.878)" fill="#ffb6b6"/>
  <path id="Path_14962" data-name="Path 14962" d="M339.779,725.2h21.778a13.878,13.878,0,0,1,13.878,13.877v.452H339.779Z" transform="translate(-222.725 -385.39)" fill="#2f2e41"/>
  <circle id="Ellipse_973" data-name="Ellipse 973" cx="19.975" cy="19.975" r="19.975" transform="translate(151.938 12.327)" fill="#ffb6b6"/>
  <path id="Path_14963" data-name="Path 14963" d="M347.319,446.672s.294,89.386-1.133,90.813-6.492,54.884-6.492,54.884h17.7c1.18,0,31.3-116.447,31.3-116.447s12.841,62.779,10.7,66.346-.472,50.327.713,54.218c0,0,14.876,4.761,16.3,1.194s3.541-51.933,3.541-51.933l4.131-80.26.09-20.955Z" transform="translate(-222.69 -270.36)" fill="#2f2e41"/>
  <path id="Path_14964" data-name="Path 14964" d="M487.947,274.084H495.9a2.572,2.572,0,0,1,2.51,2.006c1.227,5.431,4.387,20.826,3.81,32.95-.713,14.981-2.14,38.524-2.14,40.664s-7.134,34.957-7.134,34.957-4.9-8.061-10.3-6.527l1.025-29.143,1.427-12.128-2.14-21.4Z" transform="translate(-281.277 -200.501)" fill="#f5f7fb"/>
  <path id="Path_14965" data-name="Path 14965" d="M385.078,251.951s-25.326,8.425-28.179,15.558,11,58.853,11,58.853-5.311,23.606-12.427,46.017c-3.238,10.2,27.667,1.467,41.935-3.527,8.841-3.066,25.194,1.642,34.4-.04,0,0,1.427-19.262,0-22.829s-4.994-1.427-2.854-6.421,1.427-5.707.713-7.847,1.427-4.994,1.427-7.847-.713-9.274-.713-9.274,19.262-44.944,14.981-49.225-26.069-12.528-26.069-12.528S419.832,253.184,385.078,251.951Z" transform="translate(-229.06 -191.43)" fill="#f5f7fb"/>
  <path id="Path_14966" data-name="Path 14966" d="M353.029,274.084l-2.534,1.267a7.145,7.145,0,0,0-3.827,5.074L336.621,334.01l-2.14,50.651s12.128-3.567,15.695,0c0,0-3.567-10.7-1.427-14.268s2.14-8.561,2.14-8.561-1.427,0,2.14-3.567,4.28-4.994,3.567-5.707-1.427-7.134-1.427-7.847S362.3,296.2,362.3,296.2Z" transform="translate(-220.553 -200.501)" fill="#f5f7fb"/>
  <path id="Path_14967" data-name="Path 14967" d="M653.136,323.763a1.18,1.18,0,0,1,0-2.361c54.539,0,106.551-10.92,146.457-30.749,37.42-18.594,61.265-43.807,65.422-69.177a1.18,1.18,0,0,1,2.33.378v0c-2.159,13.178-9.167,26.105-20.83,38.422-11.5,12.148-26.935,23.078-45.871,32.487C760.417,312.755,708.032,323.763,653.136,323.763Z" transform="translate(-350.671 -178.534)" fill="#6135fb"/>
  <path id="Path_14968" data-name="Path 14968" d="M735.574,169.142H510.138V57.765h1.18v110.2H735.574Z" transform="translate(-209.081 -23.675)" fill="#f5f7fb"/>
  <path id="Path_14969" data-name="Path 14969" d="M397.523,188.431a10.975,10.975,0,0,1-.418-7.054c1.632,4.328,4.873,3.007,6.525.977,2.072-2.545,1.475-8.423,4.746-8.686a36.654,36.654,0,0,1,9.764.972l-1.6-2.743,6.994.434L421.45,168.9a23.913,23.913,0,0,1,14.162,13.4,15.336,15.336,0,0,0-8.057-22.562l2.759-3.62-18.72-1.847a5.559,5.559,0,0,1,2.178-4.705,9.366,9.366,0,0,0-7.135,1.683,27.788,27.788,0,0,0-5.369,5.258,42.841,42.841,0,0,0-6.577,9.285A21.872,21.872,0,0,0,397.523,188.431Zm.226-8.79h0l.019,0Z" transform="translate(-244.437 -149.399)" fill="#2f2e41"/>
  <path id="Path_14970" data-name="Path 14970" d="M524.133,749.625h-382a.7.7,0,1,1,0-1.405h382a.7.7,0,1,1,0,1.405Z" transform="translate(-141.431 -394.827)" fill="#f5f7fb"/>
</svg>
