<svg xmlns="http://www.w3.org/2000/svg" width="27.344" height="58.118" viewBox="0 0 27.344 58.118">
  <g id="Group_10526" data-name="Group 10526" transform="translate(-90 -71.046)">
    <path id="Path_72" data-name="Path 72" d="M83.481,91.006l-.221-.215-.058-.066a39.7,39.7,0,0,1-7.978-14.414A41.159,41.159,0,0,1,88.14,32.888L90.659,36a36.453,36.453,0,0,0-13.046,25.08,36.072,36.072,0,0,0,8.563,26.96l.093.091Z" transform="translate(26.685 38.158)" fill="#41d8b6"/>
    <rect id="Rectangle_96" data-name="Rectangle 96" width="4.12" height="28.782" transform="translate(90 85.787)" fill="#6135fb"/>
    <path id="Path_73" data-name="Path 73" d="M82.763,91.027l-.158-.153A38.575,38.575,0,0,1,73.662,77.49a42.255,42.255,0,0,1-.074-31.077,38.627,38.627,0,0,1,8.887-13.44l2.8,2.859A34.642,34.642,0,0,0,77.31,47.889a38.251,38.251,0,0,0,.066,28.106A34.585,34.585,0,0,0,85.394,88l.158.153Z" transform="translate(27.402 38.137)" fill="#6135fb"/>
  </g>
</svg>
