<svg xmlns="http://www.w3.org/2000/svg" width="97.275" height="58.118" viewBox="0 0 97.275 58.118">
  <g id="Group_528" data-name="Group 528" transform="translate(3962 -698)">
    <g id="Group_423" data-name="Group 423" transform="translate(-3962 698)">
      <path id="Path_72" data-name="Path 72" d="M83.481,91.006l-.221-.215-.058-.066a39.7,39.7,0,0,1-7.978-14.414A41.159,41.159,0,0,1,88.14,32.888L90.659,36a36.453,36.453,0,0,0-13.046,25.08,36.072,36.072,0,0,0,8.563,26.96l.093.091Z" transform="translate(-63.315 -32.888)" fill="#41d8b6"/>
      <rect id="Rectangle_96" data-name="Rectangle 96" width="4.12" height="28.782" transform="translate(0 14.74)" fill="#6135fb"/>
      <rect id="Rectangle_96-2" data-name="Rectangle 96-2" width="4.12" height="28.782" transform="translate(24.662 14.74)"/>
      <path id="Union_4" data-name="Union 4" d="M.406,26.508V8.52h4.12V26.508ZM0,2.52a2.52,2.52,0,1,1,2.52,2.52A2.52,2.52,0,0,1,0,2.52Z" transform="translate(58.841 17.014)" stroke="rgba(0,0,0,0)" stroke-miterlimit="10" stroke-width="1"/>
      <path id="Path_73" data-name="Path 73" d="M82.763,91.027l-.158-.153A38.575,38.575,0,0,1,73.662,77.49a42.255,42.255,0,0,1-.074-31.077,38.627,38.627,0,0,1,8.887-13.44l2.8,2.859A34.642,34.642,0,0,0,77.31,47.889a38.251,38.251,0,0,0,.066,28.106A34.585,34.585,0,0,0,85.394,88l.158.153Z" transform="translate(-62.598 -32.91)" fill="#6135fb"/>
      <path id="Union_3" data-name="Union 3" d="M8.82,18.8h0a8.325,8.325,0,0,1-3.433-.739,8.615,8.615,0,0,1-1.5-.866,9.009,9.009,0,0,1-1.305-1.149,9.391,9.391,0,0,1-1.077-1.391,9.6,9.6,0,0,1-.813-1.6A9.787,9.787,0,0,1,.179,11.3a10.091,10.091,0,0,1,0-3.789A9.769,9.769,0,0,1,.694,5.742a9.507,9.507,0,0,1,.814-1.6A9.3,9.3,0,0,1,2.584,2.754,9.059,9.059,0,0,1,3.889,1.606a8.7,8.7,0,0,1,1.5-.867,8.345,8.345,0,0,1,6.867,0,8.7,8.7,0,0,1,1.5.867,9.051,9.051,0,0,1,1.305,1.148q.267.285.51.592V.39h4.12V18.379h-4.12V15.456q-.242.307-.51.593A9.04,9.04,0,0,1,13.752,17.2a8.725,8.725,0,0,1-1.5.867,8.33,8.33,0,0,1-3.428.738ZM8.464,3.489a5.18,5.18,0,0,0-1.034.351,5.382,5.382,0,0,0-.937.557,5.723,5.723,0,0,0-.816.737A6.035,6.035,0,0,0,5,6.027,6.255,6.255,0,0,0,4.5,7.052a6.378,6.378,0,0,0-.322,1.133,6.661,6.661,0,0,0,0,2.432A6.387,6.387,0,0,0,4.5,11.75,6.206,6.206,0,0,0,5,12.774a5.951,5.951,0,0,0,.673.894,5.686,5.686,0,0,0,.816.737,5.379,5.379,0,0,0,.936.556,5.09,5.09,0,0,0,4.291,0,5.377,5.377,0,0,0,.936-.556,5.724,5.724,0,0,0,.816-.737,5.979,5.979,0,0,0,.673-.894,6.2,6.2,0,0,0,.508-1.025,6.383,6.383,0,0,0,.322-1.133,6.657,6.657,0,0,0,0-2.432,6.383,6.383,0,0,0-.322-1.133,6.206,6.206,0,0,0-.508-1.025,5.978,5.978,0,0,0-.672-.892,5.731,5.731,0,0,0-.816-.737,5.345,5.345,0,0,0-.937-.556,5.093,5.093,0,0,0-3.257-.351Z" transform="translate(33.698 25.143)" stroke="rgba(0,0,0,0)" stroke-miterlimit="10" stroke-width="1"/>
      <path id="Path_78" data-name="Path 78" d="M180.439,70.648a5.446,5.446,0,0,0-1.948-2.739,6.383,6.383,0,0,0-3.846-1.027,6.756,6.756,0,0,0-2.791.587,8.721,8.721,0,0,0-2.265,1.457,8.14,8.14,0,0,0-1.263,1.4,5.574,5.574,0,0,0-1.9-2.419,6.344,6.344,0,0,0-3.773-1.026,6.564,6.564,0,0,0-3.534.985,8.716,8.716,0,0,0-2.071,1.749V67.184h-4.046v17.96h4.046V74.372a3.541,3.541,0,0,1,.568-1.963,4.257,4.257,0,0,1,1.583-1.426,4.769,4.769,0,0,1,2.294-.546,2.94,2.94,0,0,1,2.615,1.124,5.1,5.1,0,0,1,.811,2.979V85.144h4.046V74.439a3.735,3.735,0,0,1,1.259-2.831,4.569,4.569,0,0,1,3.222-1.171,3.036,3.036,0,0,1,2.751,1.117,5.6,5.6,0,0,1,.745,3.053V85.144h4.046V74.406A12.048,12.048,0,0,0,180.439,70.648Z" transform="translate(-83.763 -41.626)"/>
    </g>
    <g id="Group_428" data-name="Group 428" transform="translate(-3908.155 747.215)" opacity="0">
      <path id="Path_90" data-name="Path 90" d="M112.875-55.3a.444.444,0,0,0-.358.138.465.465,0,0,0-.117.31.451.451,0,0,0,.117.323.47.47,0,0,0,.358.124.444.444,0,0,0,.358-.138.466.466,0,0,0,.117-.31.452.452,0,0,0-.117-.323A.471.471,0,0,0,112.875-55.3Z" transform="translate(-84.559 55.297)"/>
      <path id="Path_91" data-name="Path 91" d="M-98.042-46.894h.743v-2.05h2.071v-.715H-97.3v-1.335h2.38v-.715h-3.123Z" transform="translate(98.042 52.184)"/>
      <path id="Path_92" data-name="Path 92" d="M-67.759-42.94a1.828,1.828,0,0,0-.932-.241,1.846,1.846,0,0,0-.936.241,1.774,1.774,0,0,0-.664.664,1.911,1.911,0,0,0-.244.973,1.911,1.911,0,0,0,.244.973,1.773,1.773,0,0,0,.664.664,1.845,1.845,0,0,0,.936.241,1.827,1.827,0,0,0,.932-.241,1.782,1.782,0,0,0,.66-.664,1.913,1.913,0,0,0,.244-.973,1.913,1.913,0,0,0-.244-.973A1.783,1.783,0,0,0-67.759-42.94Zm.041,2.274a1.123,1.123,0,0,1-.4.437,1.06,1.06,0,0,1-.571.158,1.077,1.077,0,0,1-.574-.158,1.113,1.113,0,0,1-.406-.437,1.281,1.281,0,0,1-.141-.636,1.3,1.3,0,0,1,.141-.643,1.089,1.089,0,0,1,.406-.433,1.1,1.1,0,0,1,.574-.155,1.078,1.078,0,0,1,.571.155,1.1,1.1,0,0,1,.4.433,1.3,1.3,0,0,1,.141.643A1.283,1.283,0,0,1-67.718-40.667Z" transform="translate(74.174 44.784)"/>
      <path id="Path_93" data-name="Path 93" d="M-35.718-42.968a1.326,1.326,0,0,0-.457.543v-.681h-.715v3.612h.715v-2a.873.873,0,0,1,.141-.5.976.976,0,0,1,.354-.323.912.912,0,0,1,.433-.114.894.894,0,0,1,.21.024.807.807,0,0,1,.169.058l.186-.771a.9.9,0,0,0-.392-.069A1.109,1.109,0,0,0-35.718-42.968Z" transform="translate(44.981 44.784)"/>
      <path id="Path_94" data-name="Path 94" d="M2.646-51.513a1.341,1.341,0,0,0-.709-.2H-.023v4.816H.72v-1.844H1.938a1.324,1.324,0,0,0,.709-.2,1.478,1.478,0,0,0,.516-.54,1.5,1.5,0,0,0,.193-.753,1.48,1.48,0,0,0-.193-.753A1.467,1.467,0,0,0,2.646-51.513Zm-.141,1.672a.794.794,0,0,1-.244.282.571.571,0,0,1-.337.107H.72v-1.541h1.2a.62.62,0,0,1,.475.22.78.78,0,0,1,.2.543A.818.818,0,0,1,2.505-49.841Z" transform="translate(12.991 52.184)"/>
      <path id="Path_95" data-name="Path 95" d="M32.765-42.968a1.325,1.325,0,0,0-.457.543v-.681h-.715v3.612h.715v-2a.873.873,0,0,1,.141-.5.974.974,0,0,1,.354-.323.913.913,0,0,1,.433-.114.9.9,0,0,1,.21.024.808.808,0,0,1,.169.058l.186-.771a.9.9,0,0,0-.392-.069A1.108,1.108,0,0,0,32.765-42.968Z" transform="translate(-14.442 44.784)"/>
      <path id="Path_96" data-name="Path 96" d="M52.517-42.94a1.827,1.827,0,0,0-.932-.241,1.847,1.847,0,0,0-.936.241,1.776,1.776,0,0,0-.664.664,1.911,1.911,0,0,0-.244.973,1.911,1.911,0,0,0,.244.973,1.775,1.775,0,0,0,.664.664,1.846,1.846,0,0,0,.936.241,1.826,1.826,0,0,0,.932-.241,1.781,1.781,0,0,0,.661-.664,1.912,1.912,0,0,0,.244-.973,1.913,1.913,0,0,0-.244-.973A1.782,1.782,0,0,0,52.517-42.94Zm.041,2.274a1.122,1.122,0,0,1-.4.437,1.06,1.06,0,0,1-.571.158,1.078,1.078,0,0,1-.575-.158,1.114,1.114,0,0,1-.406-.437,1.281,1.281,0,0,1-.141-.636,1.3,1.3,0,0,1,.141-.643,1.09,1.09,0,0,1,.406-.433,1.1,1.1,0,0,1,.575-.155,1.077,1.077,0,0,1,.571.155,1.1,1.1,0,0,1,.4.433,1.3,1.3,0,0,1,.141.643A1.281,1.281,0,0,1,52.558-40.667Z" transform="translate(-30.19 44.784)"/>
      <path id="Path_97" data-name="Path 97" d="M81.82-40.029l-1.053-2.58H80L81.531-39h.509l1.6-3.612h-.729Z" transform="translate(-56.449 44.287)"/>
      <rect id="Rectangle_100" data-name="Rectangle 100" width="0.709" height="3.612" transform="translate(27.972 1.679)"/>
      <path id="Path_98" data-name="Path 98" d="M128.088-51.856a1.537,1.537,0,0,0-.492-.371,1.527,1.527,0,0,0-.7-.158,1.6,1.6,0,0,0-.867.241,1.729,1.729,0,0,0-.612.664,2.027,2.027,0,0,0-.227.973,2.033,2.033,0,0,0,.227.97,1.7,1.7,0,0,0,.619.667,1.648,1.648,0,0,0,.881.241,1.356,1.356,0,0,0,.7-.182,1.551,1.551,0,0,0,.468-.4v.509h.709v-5.091h-.709Zm-.11,2a1.1,1.1,0,0,1-.385.454,1.017,1.017,0,0,1-.578.165,1,1,0,0,1-.571-.165,1.126,1.126,0,0,1-.389-.454,1.454,1.454,0,0,1-.141-.647,1.449,1.449,0,0,1,.141-.65,1.131,1.131,0,0,1,.389-.451,1,1,0,0,1,.571-.165,1.017,1.017,0,0,1,.578.165,1.107,1.107,0,0,1,.385.451,1.48,1.48,0,0,1,.138.65A1.486,1.486,0,0,1,127.978-49.861Z" transform="translate(-95.659 53.989)"/>
      <path id="Path_99" data-name="Path 99" d="M160.828-43.009a1.571,1.571,0,0,0-.825-.224,1.87,1.87,0,0,0-.915.23,1.758,1.758,0,0,0-.674.66,2,2,0,0,0-.255,1.035,1.853,1.853,0,0,0,.241.946,1.718,1.718,0,0,0,.671.654,2.023,2.023,0,0,0,.994.237,2.025,2.025,0,0,0,.8-.165,1.987,1.987,0,0,0,.605-.378h.007l-.351-.516a2.829,2.829,0,0,1-.385.272,1.174,1.174,0,0,1-.612.141,1.3,1.3,0,0,1-.863-.285,1.158,1.158,0,0,1-.4-.774h2.766l.007-.3a1.839,1.839,0,0,0-.22-.915A1.642,1.642,0,0,0,160.828-43.009Zm.09,1.269H158.9a.949.949,0,0,1,.4-.65,1.309,1.309,0,0,1,.709-.189.943.943,0,0,1,.427.1.934.934,0,0,1,.334.279.791.791,0,0,1,.155.413Z" transform="translate(-124.264 44.829)"/>
      <path id="Path_100" data-name="Path 100" d="M191.468-42.968a1.325,1.325,0,0,0-.457.543v-.681H190.3v3.612h.715v-2a.873.873,0,0,1,.141-.5.974.974,0,0,1,.354-.323.913.913,0,0,1,.433-.114.9.9,0,0,1,.21.024.809.809,0,0,1,.169.058l.186-.771a.9.9,0,0,0-.392-.069A1.108,1.108,0,0,0,191.468-42.968Z" transform="translate(-152.149 44.784)"/>
      <path id="Path_101" data-name="Path 101" d="M212.143-41.107a1.123,1.123,0,0,0-.444-.33,4.229,4.229,0,0,0-.55-.189,2.994,2.994,0,0,1-.54-.186.372.372,0,0,1-.224-.351.36.36,0,0,1,.1-.272.507.507,0,0,1,.237-.127A1.2,1.2,0,0,1,211-42.6a1.007,1.007,0,0,1,.451.124,1.707,1.707,0,0,1,.437.316l.406-.447a1.421,1.421,0,0,0-.626-.44,2.065,2.065,0,0,0-.7-.138,1.584,1.584,0,0,0-.633.127,1.2,1.2,0,0,0-.478.358.865.865,0,0,0-.182.554.912.912,0,0,0,.189.609,1.242,1.242,0,0,0,.475.344,4.836,4.836,0,0,0,.581.2,3.724,3.724,0,0,1,.365.107.752.752,0,0,1,.265.151.335.335,0,0,1,.1.258.383.383,0,0,1-.093.272.539.539,0,0,1-.224.144.8.8,0,0,1-.261.045,1.274,1.274,0,0,1-.581-.12,1.4,1.4,0,0,1-.423-.334l-.482.413a1.455,1.455,0,0,0,.65.485,2.22,2.22,0,0,0,.774.141,1.593,1.593,0,0,0,.629-.127,1.211,1.211,0,0,0,.488-.368.907.907,0,0,0,.189-.578A.944.944,0,0,0,212.143-41.107Z" transform="translate(-168.888 44.784)"/>
    </g>
  </g>
</svg>
