<svg xmlns="http://www.w3.org/2000/svg" width="121" height="72.325" viewBox="0 0 121 72.325">
  <g id="Group_10471" data-name="Group 10471" transform="translate(-75.648 -100.713)" opacity="0.533">
    <path id="Path_72" data-name="Path 72" d="M85.931,105.213l-.275-.267-.072-.082a49.41,49.41,0,0,1-9.928-17.937A51.22,51.22,0,0,1,91.73,32.888l3.135,3.874A45.364,45.364,0,0,0,78.63,67.973a44.89,44.89,0,0,0,10.656,33.551l.116.113Z" transform="translate(14.812 67.825)" fill="#c1c8d5" opacity="0.6"/>
    <rect id="Rectangle_96" data-name="Rectangle 96" width="5.127" height="35.818" transform="translate(75.648 119.057)" fill="#c1c8d5"/>
    <rect id="Rectangle_96-2" data-name="Rectangle 96-2" width="5.127" height="35.818" transform="translate(106.339 119.057)" fill="#c1c8d5"/>
    <rect id="Rectangle_96-3" data-name="Rectangle 96-3" width="5.127" height="22.386" transform="translate(149.378 132.489)" fill="#c1c8d5" stroke="rgba(0,0,0,0)" stroke-miterlimit="10" stroke-width="1"/>
    <circle id="Ellipse_134" data-name="Ellipse 134" cx="3.135" cy="3.135" r="3.135" transform="translate(148.873 121.886)" fill="#c1c8d5" stroke="rgba(0,0,0,0)" stroke-miterlimit="10" stroke-width="1"/>
    <path id="Path_73" data-name="Path 73" d="M85.721,105.22l-.2-.19a48,48,0,0,1-11.13-16.657A52.585,52.585,0,0,1,74.3,49.7,48.069,48.069,0,0,1,85.361,32.972l3.488,3.558a43.111,43.111,0,0,0-9.914,15.006,47.6,47.6,0,0,0,.082,34.976,43.04,43.04,0,0,0,9.978,14.94l.2.19Z" transform="translate(15.022 67.819)" fill="#c1c8d5"/>
    <path id="Subtraction_1" data-name="Subtraction 1" d="M116.141,90.127a10.36,10.36,0,0,1-4.273-.919A10.72,10.72,0,0,1,110,88.13a11.214,11.214,0,0,1-1.625-1.429,11.688,11.688,0,0,1-1.341-1.731,11.955,11.955,0,0,1-1.011-1.987,12.186,12.186,0,0,1-.64-2.2,12.56,12.56,0,0,1,0-4.715,12.165,12.165,0,0,1,.64-2.2,11.853,11.853,0,0,1,1.012-1.987,11.579,11.579,0,0,1,1.34-1.732A11.256,11.256,0,0,1,110,68.728a10.817,10.817,0,0,1,1.865-1.079,10.386,10.386,0,0,1,8.545,0,10.818,10.818,0,0,1,1.865,1.079,11.253,11.253,0,0,1,1.625,1.428,11.581,11.581,0,0,1,1.34,1.732,11.958,11.958,0,0,1,1.011,1.987,12.253,12.253,0,0,1,.64,2.195,12.559,12.559,0,0,1,0,4.715,12.2,12.2,0,0,1-.64,2.2,11.956,11.956,0,0,1-1.012,1.987A11.622,11.622,0,0,1,123.9,86.7a11.252,11.252,0,0,1-1.624,1.429,10.856,10.856,0,0,1-1.865,1.079,10.364,10.364,0,0,1-4.273.919Zm.938-19.208a6.322,6.322,0,0,0-1.382.153,6.459,6.459,0,0,0-1.287.437,6.709,6.709,0,0,0-1.166.693,7.125,7.125,0,0,0-1.015.917,7.492,7.492,0,0,0-.838,1.111,7.787,7.787,0,0,0-.631,1.275,7.932,7.932,0,0,0-.4,1.41,8.287,8.287,0,0,0,0,3.027,7.944,7.944,0,0,0,.4,1.409,7.716,7.716,0,0,0,.632,1.275,7.371,7.371,0,0,0,.838,1.112,7.08,7.08,0,0,0,1.015.917,6.7,6.7,0,0,0,1.165.693,6.335,6.335,0,0,0,5.34,0,6.7,6.7,0,0,0,1.165-.693,7.132,7.132,0,0,0,1.015-.917,7.433,7.433,0,0,0,.838-1.112,7.717,7.717,0,0,0,.632-1.275,7.956,7.956,0,0,0,.4-1.41,8.287,8.287,0,0,0,0-3.027,7.956,7.956,0,0,0-.4-1.41,7.728,7.728,0,0,0-.632-1.276,7.457,7.457,0,0,0-.836-1.11,7.131,7.131,0,0,0-1.015-.917,6.646,6.646,0,0,0-1.166-.693,6.293,6.293,0,0,0-2.671-.59Z" transform="translate(12.421 65.273)" fill="#c1c8d5" stroke="rgba(0,0,0,0)" stroke-miterlimit="10" stroke-width="1"/>
    <rect id="Rectangle_96-5" data-name="Rectangle 96-5" width="5.127" height="22.386" transform="translate(136.958 132.489)" fill="#c1c8d5" stroke="rgba(0,0,0,0)" stroke-miterlimit="10" stroke-width="1"/>
    <path id="Path_78" data-name="Path 78" d="M187.146,71.569a6.778,6.778,0,0,0-2.424-3.408,7.944,7.944,0,0,0-4.786-1.278,8.408,8.408,0,0,0-3.473.73,10.853,10.853,0,0,0-2.819,1.813,10.133,10.133,0,0,0-1.572,1.744,6.937,6.937,0,0,0-2.36-3.01,7.9,7.9,0,0,0-4.7-1.277,8.168,8.168,0,0,0-4.4,1.226,10.847,10.847,0,0,0-2.578,2.176V67.257h-5.035V89.608h5.035V76.2a4.407,4.407,0,0,1,.707-2.443,5.3,5.3,0,0,1,1.969-1.775,5.936,5.936,0,0,1,2.855-.68,3.658,3.658,0,0,1,3.255,1.4,6.349,6.349,0,0,1,1.01,3.707v13.2h5.035V76.286a4.648,4.648,0,0,1,1.567-3.524,5.686,5.686,0,0,1,4.009-1.457c1.681,0,2.833.468,3.424,1.391a6.972,6.972,0,0,1,.927,3.8V89.608h5.035V76.244A14.993,14.993,0,0,0,187.146,71.569Z" transform="translate(8.814 65.262)" fill="#c1c8d5"/>
  </g>
</svg>
