<svg xmlns="http://www.w3.org/2000/svg" width="20" height="20" viewBox="0 0 20 20">
  <g id="Layer_2" data-name="Layer 2" transform="translate(-0.215 -0.215)">
    <g id="invisible_box" data-name="invisible box" transform="translate(0.2 0.2)">
      <rect id="Rectangle_2" data-name="Rectangle 2" width="20" height="20" transform="translate(0.015 0.015)" fill="none"/>
    </g>
    <g id="icons_Q2" data-name="icons Q2" transform="translate(0.881 0.924)">
      <path id="Path_13856" data-name="Path 13856" d="M17.791,8.27a13.915,13.915,0,0,0-.891,2.376h2.164V6.7a4.964,4.964,0,0,0-1.273,1.57Z" transform="translate(-10.578 -4.749)" fill="#636b80"/>
      <path id="Path_13857" data-name="Path 13857" d="M16,21.7c0,.552.042,1.145.085,1.7h2.461V20H16.085C16.042,20.552,16,21.1,16,21.7Z" transform="translate(-10.06 -12.406)" fill="#636b80"/>
      <path id="Path_13858" data-name="Path 13858" d="M17.791,34.376a4.964,4.964,0,0,0,1.273,1.57V32H16.9a13.915,13.915,0,0,0,.891,2.376Z" transform="translate(-10.578 -19.316)" fill="#636b80"/>
      <path id="Path_13859" data-name="Path 13859" d="M27.273,34.376A13.915,13.915,0,0,0,28.164,32H26v3.945A4.963,4.963,0,0,0,27.273,34.376Z" transform="translate(-15.818 -19.316)" fill="#636b80"/>
      <path id="Path_13860" data-name="Path 13860" d="M27.273,8.27A4.964,4.964,0,0,0,26,6.7v3.945h2.164a13.915,13.915,0,0,0-.891-2.376Z" transform="translate(-15.818 -4.749)" fill="#636b80"/>
      <path id="Path_13861" data-name="Path 13861" d="M28.545,21.7c0-.594-.042-1.145-.085-1.7H26v3.394h2.461C28.5,22.842,28.545,22.248,28.545,21.7Z" transform="translate(-15.818 -12.406)" fill="#636b80"/>
      <path id="Path_13862" data-name="Path 13862" d="M6.326,20c-.042.552-.085,1.1-.085,1.7s.042,1.145.085,1.7H2.168A7.424,7.424,0,0,1,2,21.7a7.424,7.424,0,0,1,.17-1.7Z" transform="translate(-1.998 -12.406)" fill="#636b80"/>
      <path id="Path_13863" data-name="Path 13863" d="M11.348,2.1v.085h0a.212.212,0,0,0-.17.085h-.212a5.557,5.557,0,0,0-1.188.848l-.17.17a6.83,6.83,0,0,0-.891,1.273h0a1.739,1.739,0,0,0-.212.382l-.382.764a1.782,1.782,0,0,1-.17.424l-.127.424L7.7,6.936c-.085.3-.17.679-.255,1.018H3.5a10.733,10.733,0,0,1,.764-1.57l.17-.212a8.273,8.273,0,0,1,.721-.933l.212-.212c.085-.085.127-.17.212-.212A4.836,4.836,0,0,1,6.3,4.179a.339.339,0,0,1,.17-.17L6.6,3.924l.3-.212.255-.17.339-.212.255-.17.339-.127.255-.127a9.672,9.672,0,0,1,2.673-.764h.339Z" transform="translate(-2.863 -2.1)" fill="#636b80"/>
      <path id="Path_13864" data-name="Path 13864" d="M11.348,37.812V37.9h-.339a9.672,9.672,0,0,1-2.673-.806l-.255-.127-.339-.17-.255-.127-.339-.212-.255-.17-.3-.212-.127-.127c-.085,0-.127-.042-.17-.127a4.836,4.836,0,0,1-.721-.636c-.085-.042-.127-.127-.212-.212s-.127-.17-.212-.212a8.272,8.272,0,0,1-.721-.976.891.891,0,0,0-.17-.255A8.569,8.569,0,0,1,3.5,32H7.445L7.7,33.018l.127.382.127.424a1.782,1.782,0,0,1,.17.424l.382.764a1.739,1.739,0,0,0,.212.382h0a6.83,6.83,0,0,0,.891,1.273l.17.127a3.648,3.648,0,0,0,1.188.848l.17.085Z" transform="translate(-2.863 -19.316)" fill="#636b80"/>
      <path id="Path_13865" data-name="Path 13865" d="M33.848,8H29.9l-.255-1.018L29.521,6.6l-.127-.424a1.782,1.782,0,0,1-.17-.424l-.382-.764A1.74,1.74,0,0,0,28.63,4.6h0a6.83,6.83,0,0,0-.891-1.273l-.17-.17a5.557,5.557,0,0,0-1.188-.848H26.17A.212.212,0,0,0,26,2.227h0V2.1h.339a9.672,9.672,0,0,1,2.673.806l.255.127.339.127.255.17.339.212.255.17.3.212.127.085a.339.339,0,0,1,.17.17,4.836,4.836,0,0,1,.721.636l.212.212c.085.085.127.17.212.212a8.272,8.272,0,0,1,.721.976l.17.212A10.734,10.734,0,0,1,33.848,8Z" transform="translate(-15.818 -2.1)" fill="#636b80"/>
      <path id="Path_13866" data-name="Path 13866" d="M33.848,31.942a8.57,8.57,0,0,1-.764,1.527.891.891,0,0,0-.17.255,8.272,8.272,0,0,1-.721.976c-.085.042-.127.127-.212.212l-.212.212a4.837,4.837,0,0,1-.721.636c-.042.085-.085.127-.17.127l-.127.127-.3.212-.255.17-.339.212-.255.127-.339.17-.255.127a9.672,9.672,0,0,1-2.673.764H26v-.085l.212-.085.17-.085a3.648,3.648,0,0,0,1.188-.848l.17-.127a6.83,6.83,0,0,0,.891-1.273h0a1.739,1.739,0,0,0,.212-.382l.382-.764a1.782,1.782,0,0,1,.17-.424l.127-.424.127-.382L29.9,31.9Z" transform="translate(-15.818 -19.258)" fill="#636b80"/>
      <path id="Path_13867" data-name="Path 13867" d="M40.127,21.7a7.424,7.424,0,0,1-.17,1.7H35.8c.042-.552.085-1.1.085-1.7s-.042-1.145-.085-1.7h4.157A7.424,7.424,0,0,1,40.127,21.7Z" transform="translate(-21.46 -12.406)" fill="#636b80"/>
    </g>
  </g>
</svg>
