<svg id="Group_423" data-name="Group 423" xmlns="http://www.w3.org/2000/svg" width="88.151" height="52.691" viewBox="0 0 88.151 52.691">
  <path id="Path_72" data-name="Path 72" d="M82.544,85.579l-.2-.195-.053-.06a36,36,0,0,1-7.233-13.068,37.315,37.315,0,0,1,11.71-39.369l2.284,2.822A33.049,33.049,0,0,0,77.225,58.449a32.7,32.7,0,0,0,7.763,24.442l.084.082Z" transform="translate(-64.262 -32.888)" fill="#fff" opacity="0.6"/>
  <rect id="Rectangle_96" data-name="Rectangle 96" width="3.735" height="26.094" transform="translate(0 13.364)" fill="#fff"/>
  <rect id="Rectangle_96-2" data-name="Rectangle 96-2" width="3.735" height="26.094" transform="translate(22.359 13.364)" fill="#fff"/>
  <path id="Union_4" data-name="Union 4" d="M.368,24.033V7.724H4.1V24.033ZM0,2.284A2.284,2.284,0,1,1,2.284,4.568,2.284,2.284,0,0,1,0,2.284Z" transform="translate(53.346 15.425)" fill="#fff" stroke="rgba(0,0,0,0)" stroke-miterlimit="10" stroke-width="1"/>
  <path id="Path_73" data-name="Path 73" d="M81.633,85.606l-.143-.139a34.972,34.972,0,0,1-8.109-12.135,38.31,38.31,0,0,1-.067-28.176,35.02,35.02,0,0,1,8.057-12.185l2.541,2.592A31.407,31.407,0,0,0,76.689,46.5a34.679,34.679,0,0,0,.06,25.481,31.356,31.356,0,0,0,7.269,10.885l.143.139Z" transform="translate(-63.351 -32.915)" fill="#fff"/>
  <path id="Union_3" data-name="Union 3" d="M8,17.046H8a7.548,7.548,0,0,1-3.113-.67,7.81,7.81,0,0,1-1.359-.785,8.168,8.168,0,0,1-1.184-1.041,8.514,8.514,0,0,1-.977-1.261,8.705,8.705,0,0,1-.737-1.448,8.873,8.873,0,0,1-.466-1.6,9.149,9.149,0,0,1,0-3.435,8.856,8.856,0,0,1,.466-1.6,8.619,8.619,0,0,1,.738-1.448A8.432,8.432,0,0,1,2.342,2.5,8.213,8.213,0,0,1,3.526,1.456,7.886,7.886,0,0,1,4.885.67a7.566,7.566,0,0,1,6.225,0,7.886,7.886,0,0,1,1.359.786A8.206,8.206,0,0,1,13.652,2.5q.242.258.462.536V.354h3.735V16.663H14.114v-2.65q-.22.278-.463.537a8.2,8.2,0,0,1-1.184,1.041,7.911,7.911,0,0,1-1.359.786A7.552,7.552,0,0,1,8,17.046ZM7.673,3.163a4.7,4.7,0,0,0-.938.319,4.879,4.879,0,0,0-.849.505,5.189,5.189,0,0,0-.74.668,5.472,5.472,0,0,0-.61.81,5.671,5.671,0,0,0-.46.929,5.782,5.782,0,0,0-.292,1.027,6.039,6.039,0,0,0,0,2.205,5.791,5.791,0,0,0,.292,1.027,5.627,5.627,0,0,0,.461.929,5.4,5.4,0,0,0,.61.81,5.155,5.155,0,0,0,.74.668,4.877,4.877,0,0,0,.849.5,4.615,4.615,0,0,0,3.89,0,4.875,4.875,0,0,0,.849-.5,5.189,5.189,0,0,0,.74-.668,5.421,5.421,0,0,0,.61-.81,5.624,5.624,0,0,0,.461-.929,5.788,5.788,0,0,0,.292-1.027,6.035,6.035,0,0,0,0-2.205,5.788,5.788,0,0,0-.292-1.027,5.627,5.627,0,0,0-.461-.93,5.42,5.42,0,0,0-.609-.809,5.2,5.2,0,0,0-.74-.668,4.846,4.846,0,0,0-.849-.5,4.618,4.618,0,0,0-2.953-.319Z" transform="translate(30.551 22.795)" fill="#fff" stroke="rgba(0,0,0,0)" stroke-miterlimit="10" stroke-width="1"/>
  <path id="Path_78" data-name="Path 78" d="M177.877,70.3a4.938,4.938,0,0,0-1.766-2.483,5.787,5.787,0,0,0-3.486-.931,6.125,6.125,0,0,0-2.53.532,7.907,7.907,0,0,0-2.054,1.321,7.38,7.38,0,0,0-1.145,1.27,5.054,5.054,0,0,0-1.719-2.193,5.752,5.752,0,0,0-3.421-.93,5.951,5.951,0,0,0-3.2.893,7.9,7.9,0,0,0-1.878,1.586V67.156h-3.668V83.439h3.668V73.673a3.211,3.211,0,0,1,.515-1.78,3.86,3.86,0,0,1,1.435-1.293,4.324,4.324,0,0,1,2.08-.5,2.665,2.665,0,0,1,2.371,1.019,4.626,4.626,0,0,1,.736,2.7v9.615h3.668V73.733a3.386,3.386,0,0,1,1.142-2.567,4.142,4.142,0,0,1,2.921-1.062,2.753,2.753,0,0,1,2.494,1.013,5.08,5.08,0,0,1,.676,2.768v9.553h3.668V73.7A10.923,10.923,0,0,0,177.877,70.3Z" transform="translate(-90.228 -43.984)" fill="#fff"/>
</svg>
