<svg xmlns="http://www.w3.org/2000/svg" width="368" height="368" viewBox="0 0 368 368">
	<g id="Group_9912" data-name="Group 9912" transform="translate(1396 -2163)">
		<g id="Rectangle_3319" data-name="Rectangle 3319" transform="translate(-1396 2163)" fill="#fff" stroke="#707070" stroke-width="1" opacity="0">
			<rect width="368" height="368" rx="184" stroke="none" />
			<rect x="0.5" y="0.5" width="367" height="367" rx="183.5" fill="none" />
		</g>
		<g id="Group_7222" data-name="Group 7222" transform="translate(-1886.63 1977.978)">
			<g id="Group_1122" data-name="Group 1122" transform="translate(-0.209 -0.491)">
				<path id="blob-2" d="M189.953,9.75c26.109,37.778,47.018,70.456,40,118.9-6.8,48.439-30.936,97.573-68.894,117.736-38.177,20.163-90.4,11.356-138.226-11.356s-74.9-56.072-79.943-96.863C-61.94,97.6-44.746,49.614-10.738,9.75,23.05-30.113,57.058-64.878,94.8-68.354,132.753-71.6,163.844-28.259,189.953,9.75Z" transform="translate(586.654 469.344) rotate(-90)" fill="#64dbf7" />
				<path id="blob-4" d="M265.392,81.692c36.538,45.3,39.329,80.314,26,116.458-13.328,36.378-42.547,73.883-89.885,88.2-47.338,14.082-85.944,23-121.333,10.8-35.159-12.2-66.641-45.531-76.753-84.961C-6.459,172.52-6.456,99.615,19.97,56.9,46.627,13.951,99.26,12.548,142,11.375,184.516,10.436,228.854,36.63,265.392,81.692Z" transform="translate(520.781 212.101)" fill="#33e5be" />
				<path id="blob-6" d="M-51.36-25.74C-77.528,2.531-78,55.568-66.313,105.8c11.682,50,35.514,96.962,74.766,118.457s94.158,17.523,142.522-4.206c48.364-21.5,90.42-60.747,97.9-104.906,7.477-43.925-19.626-92.523-53.738-122.663S119.433-49.1,72.938-53.31C26.443-57.282-25.426-54.011-51.36-25.74Z" transform="translate(594.181 283.493)" fill="#6235fb" />
			</g>
		</g>
	</g>
</svg>
