<svg xmlns="http://www.w3.org/2000/svg" width="267" height="134" viewBox="0 0 267 134">
  <g id="undraw_Statistics_re_kox4" transform="translate(0 -0.008)">
    <path id="Path_15159" data-name="Path 15159" d="M797.626,291.4H778.073a1.519,1.519,0,0,1-1.517-1.517V282.8a11.294,11.294,0,0,1,22.587,0v7.08A1.519,1.519,0,0,1,797.626,291.4Z" transform="translate(-583.535 -264.485)" fill="#2f2e41"/>
    <path id="Path_15160" data-name="Path 15160" d="M537.067,352.44l-3.959-1.187,2.695-15.835,5.843,1.752Z" transform="translate(-353.386 -222.718)" fill="#ccc"/>
    <path id="Path_15161" data-name="Path 15161" d="M723.333,633.762l-12.765-3.828.048-.161a5.187,5.187,0,0,1,6.458-3.479h0l7.8,2.338Z" transform="translate(-539.793 -499.9)" fill="#2f2e41"/>
    <path id="Path_15162" data-name="Path 15162" d="M669.643,354.961H665.51l-1.966-15.942h6.1Z" transform="translate(-439.849 -225.105)" fill="#ccc"/>
    <path id="Path_15163" data-name="Path 15163" d="M862.558,638.347H849.232v-.169a5.187,5.187,0,0,1,5.187-5.187h8.14Z" transform="translate(-631.71 -504.485)" fill="#2f2e41"/>
    <circle id="Ellipse_986" data-name="Ellipse 986" cx="8.28" cy="8.28" r="8.28" transform="translate(196.488 10.285)" fill="#ccc"/>
    <path id="Path_15164" data-name="Path 15164" d="M745.992,426.768a1.758,1.758,0,0,1-.443-.056L728.957,422.4a1.782,1.782,0,0,1-1.221-2.345c10.06-27.058,18.3-50.4,17.193-61.962a22.3,22.3,0,0,1-2.326-10.118l.118-11.691a2.29,2.29,0,0,1,2.8-2.21l18.564,4.2.105.35a24.357,24.357,0,0,1-.425,15.2c10.944,9.88,18.282,42.316,22.514,67.828a1.791,1.791,0,0,1-1.112,1.954l-.052.013L772.095,424.9a1.781,1.781,0,0,1-2.324-1.154l-11.183-36.9L747.713,425.47A1.794,1.794,0,0,1,745.992,426.768Z" transform="translate(-551.099 -306.299)" fill="#e6e6e6"/>
    <path id="Path_15165" data-name="Path 15165" d="M801.61,286.455H790.678a.844.844,0,0,1-.836-.738l-.142-1.132a.506.506,0,0,0-.96-.151l-.717,1.535a.846.846,0,0,1-.764.486H785.6a.843.843,0,0,1-.839-.923l.655-6.839a.849.849,0,0,1,.482-.686,17.094,17.094,0,0,1,15.09.009.844.844,0,0,1,.477.647l.981,6.83a.843.843,0,0,1-.834.963Z" transform="translate(-588.971 -267.631)" fill="#2f2e41"/>
    <path id="Path_15166" data-name="Path 15166" d="M552.308,495.262,448.5,486.548a2.869,2.869,0,0,1-2.616-3.1l3.92-46.7a2.869,2.869,0,0,1,3.1-2.616l103.805,8.714a2.869,2.869,0,0,1,2.616,3.1l-3.92,46.7A2.869,2.869,0,0,1,552.308,495.262Z" transform="translate(-364.335 -372.665)" fill="#ccc"/>
    <path id="Path_15167" data-name="Path 15167" d="M557.114,498.329,456.668,489.9a1.519,1.519,0,0,1-1.385-1.639l3.638-43.336a1.519,1.519,0,0,1,1.639-1.385l100.446,8.432a1.519,1.519,0,0,1,1.385,1.639l-3.638,43.336A1.519,1.519,0,0,1,557.114,498.329Z" transform="translate(-370.567 -378.897)" fill="#fff"/>
    <path id="Path_15168" data-name="Path 15168" d="M680.067,506.845h.019a13.033,13.033,0,0,0,2.176-25.922.3.3,0,0,0-.23.061.294.294,0,0,0-.111.208l-2.126,25.33a.3.3,0,0,0,.272.322Z" transform="translate(-519.393 -403.572)" fill="#3f3d56"/>
    <path id="Path_15169" data-name="Path 15169" d="M646.752,491.1a.384.384,0,0,1,.26.134l8.079,9.559a.379.379,0,0,1,.089.279l-1.018,12.121a.378.378,0,0,1-.143.267.384.384,0,0,1-.3.079,13.118,13.118,0,0,1-7.272-22.331.384.384,0,0,1,.286-.109Z" transform="translate(-494.692 -410.321)" fill="#e6e6e6"/>
    <path id="Path_15170" data-name="Path 15170" d="M665.826,480.264a.385.385,0,0,1,.253.126.378.378,0,0,1,.1.288l-.918,10.936a.382.382,0,0,1-.673.215l-7.05-8.342a.383.383,0,0,1,.061-.552,13.146,13.146,0,0,1,8.206-2.672Z" transform="translate(-504.58 -403.102)" fill="#6c63ff"/>
    <path id="Path_15171" data-name="Path 15171" d="M654.729,567.3a2.341,2.341,0,1,1-2.137-2.528,2.341,2.341,0,0,1,2.137,2.528Z" transform="translate(-499.681 -459.186)" fill="#6c63ff"/>
    <path id="Path_15172" data-name="Path 15172" d="M674.5,568.956a2.341,2.341,0,1,1-2.137-2.528A2.341,2.341,0,0,1,674.5,568.956Z" transform="translate(-512.785 -460.288)" fill="#3f3d56"/>
    <path id="Path_15173" data-name="Path 15173" d="M694.268,570.616a2.341,2.341,0,1,1-2.137-2.528,2.341,2.341,0,0,1,2.137,2.528Z" transform="translate(-525.89 -461.389)" fill="#e6e6e6"/>
    <path id="Path_15174" data-name="Path 15174" d="M534.547,487.751l-21.4-1.8a1.593,1.593,0,1,0-.267,3.175l21.4,1.8a1.593,1.593,0,0,0,.267-3.175Z" transform="translate(-407.781 -406.866)" fill="#e6e6e6"/>
    <path id="Path_15175" data-name="Path 15175" d="M532.384,513.48l-21.4-1.8a1.592,1.592,0,0,0-.907,2.979,1.571,1.571,0,0,0,.64.2l21.4,1.8a1.593,1.593,0,1,0,.266-3.175Z" transform="translate(-406.346 -423.947)" fill="#e6e6e6"/>
    <path id="Path_15176" data-name="Path 15176" d="M530.227,539.21l-21.4-1.8a1.593,1.593,0,0,0-.267,3.175l21.4,1.8a1.593,1.593,0,0,0,.267-3.175Z" transform="translate(-404.918 -441.028)" fill="#e6e6e6"/>
    <path id="Path_15177" data-name="Path 15177" d="M528.457,487.24l-15.312-1.285a1.593,1.593,0,0,0-.267,3.175l14.993,1.259a1.813,1.813,0,0,0,.586-3.148Z" transform="translate(-407.781 -406.865)" fill="#6c63ff"/>
    <path id="Path_15178" data-name="Path 15178" d="M519.222,512.375l-8.241-.692a1.592,1.592,0,0,0-.907,2.979l7.569.635a1.814,1.814,0,0,0,1.959-1.656A1.777,1.777,0,0,0,519.222,512.375Z" transform="translate(-406.346 -423.944)" fill="#6c63ff"/>
    <path id="Path_15179" data-name="Path 15179" d="M528.628,539.076l-19.8-1.663a1.593,1.593,0,0,0-.267,3.175l19.931,1.673a1.81,1.81,0,0,0,.139-3.185Z" transform="translate(-404.918 -441.028)" fill="#6c63ff"/>
    <path id="Path_15180" data-name="Path 15180" d="M726.165,393.7a3.622,3.622,0,0,0,2.51-4.954l11.671-30.619-5.958-1.467-10.722,30.254a3.641,3.641,0,0,0,2.5,6.786Z" transform="translate(-547.157 -321.067)" fill="#ccc"/>
    <path id="Path_15181" data-name="Path 15181" d="M760.589,348.394a1.794,1.794,0,0,1-.76-.169h0l-7.428-3.477a1.793,1.793,0,0,1-.735-2.613l4.514-6.817a4.579,4.579,0,0,1,2.622-2.372,4.679,4.679,0,0,1,5.829,6.384l-2.326,7.786a1.793,1.793,0,0,1-1.717,1.278Z" transform="translate(-566.839 -305.113)" fill="#e6e6e6"/>
    <path id="Path_15182" data-name="Path 15182" d="M757.059,400.419a3.622,3.622,0,0,0,3.422-4.373l18.945-27-5.662-3.034-17.841,27.268a3.641,3.641,0,0,0,1.136,7.142Z" transform="translate(-568.102 -327.275)" fill="#ccc"/>
    <path id="Path_15183" data-name="Path 15183" d="M808.811,360.447a1.791,1.791,0,0,1-1.06-.347l-6.613-4.851a1.792,1.792,0,0,1-.214-2.706l5.75-5.813a4.579,4.579,0,0,1,3.032-1.819,4.679,4.679,0,0,1,4.481,7.393l-3.791,7.187A1.794,1.794,0,0,1,808.811,360.447Z" transform="translate(-599.344 -313.207)" fill="#e6e6e6"/>
    <path id="Path_15184" data-name="Path 15184" d="M450.587,419.751a3.39,3.39,0,0,1-1.779-4.884l-7.875-9.117,6.208-.808,6.526,8.781a3.408,3.408,0,0,1-3.08,6.028Z" transform="translate(-361.058 -353.1)" fill="#ccc"/>
    <path id="Path_15185" data-name="Path 15185" d="M334.549,421.313a3.39,3.39,0,0,1,.8-5.137l-2.5-11.784,5.828,2.285,1.484,10.84a3.408,3.408,0,0,1-5.605,3.8Z" transform="translate(-289.407 -352.74)" fill="#ccc"/>
    <path id="Path_15186" data-name="Path 15186" d="M217.568,354.722H221.7l1.966-15.942h-6.1Z" transform="translate(-144.221 -224.947)" fill="#ccc"/>
    <path id="Path_15187" data-name="Path 15187" d="M418.442,632.753h8.14a5.187,5.187,0,0,1,5.187,5.187v.168H418.442Z" transform="translate(-346.149 -504.327)" fill="#2f2e41"/>
    <path id="Path_15188" data-name="Path 15188" d="M157.568,354.722H161.7l1.966-15.942h-6.1Z" transform="translate(-104.448 -224.947)" fill="#ccc"/>
    <path id="Path_15189" data-name="Path 15189" d="M358.442,632.753h8.14a5.187,5.187,0,0,1,5.187,5.187v.168H358.442Z" transform="translate(-306.376 -504.327)" fill="#2f2e41"/>
    <path id="Path_15190" data-name="Path 15190" d="M378.052,497.063a1.526,1.526,0,0,1-1.507-1.334l-4.227-34.835a.506.506,0,0,0-1-.037L364.6,495.044a1.52,1.52,0,0,1-1.489,1.224h-4.933a1.517,1.517,0,0,1-1.517-1.546l.987-52.659.08-.048c7.2-4.285,15.679-4.566,25.933-.856l.108.039,1.648,54.067a1.522,1.522,0,0,1-1.456,1.562l-5.851.234Z" transform="translate(-305.196 -375.611)" fill="#e6e6e6"/>
    <circle id="Ellipse_987" data-name="Ellipse 987" cx="8.28" cy="8.28" r="8.28" transform="translate(58.945 1.994)" fill="#ccc"/>
    <path id="Path_15191" data-name="Path 15191" d="M426.185,358.725a1.519,1.519,0,0,1-1.189-.34l-8.49-7.125a15.634,15.634,0,0,1-5.4-9.588l-1.91-12.339a4.887,4.887,0,0,1,9.108-3.547l4.041,19.388,6.45,8.754a1.522,1.522,0,0,1,.04,1.743l-1.6,2.394a1.519,1.519,0,0,1-.7.568A1.5,1.5,0,0,1,426.185,358.725Z" transform="translate(-339.797 -298.494)" fill="#e6e6e6"/>
    <path id="Path_15192" data-name="Path 15192" d="M333.074,359.716a1.519,1.519,0,0,1-.668-1.041l-1.666-10.958a15.633,15.633,0,0,1,2.28-10.766l6.719-10.524a4.887,4.887,0,0,1,9.18,3.356l-9.777,17.223-.943,10.833a1.522,1.522,0,0,1-1.121,1.335l-2.783.74a1.519,1.519,0,0,1-.9-.039A1.5,1.5,0,0,1,333.074,359.716Z" transform="translate(-287.896 -298.856)" fill="#e6e6e6"/>
    <path id="Path_15193" data-name="Path 15193" d="M375.418,315.723a14.1,14.1,0,0,0-11.306-4.571q-.208.013-.414.029h0a14.07,14.07,0,0,0-10.167,5.612,14.281,14.281,0,0,0-2.537,11.511,44.622,44.622,0,0,1-1.179,22.882l-2.221,6.9a1.517,1.517,0,0,0,1.363,1.98l11.356.611,2.906-5.02v5.176l13.8.742.082,0a1.517,1.517,0,0,0,1.512-1.639l-1.56-19.345,1.957-13.139A14.189,14.189,0,0,0,375.418,315.723Z" transform="translate(-299.137 -290.837)" fill="#e6e6e6"/>
    <path id="Path_15194" data-name="Path 15194" d="M378.212,268.867c.767.441,3.8.734,4.013-.124l0-.019a6.456,6.456,0,0,0-.018-1.929,2.417,2.417,0,0,1,.459-1.827c.819-.884,2.275-.415,3.458-.639a2.921,2.921,0,0,0,2.272-3.119c-.017-.134-.043-.268-.073-.4a2.25,2.25,0,0,1,2.335-2.724c1.2.068,2.487.431,3.477-.455a3.8,3.8,0,0,0,.616-3.439c-.565-1.631-4.185-2.485-5.765-2.954a13.694,13.694,0,0,0-11.607,1.9,6.146,6.146,0,0,0-2.356,2.733,2.992,2.992,0,0,0,.739,3.345,6.18,6.18,0,0,0-1.431,6C374.81,266.746,377.071,268.21,378.212,268.867Z" transform="translate(-316.742 -250.688)" fill="#2f2e41"/>
    <path id="Path_15195" data-name="Path 15195" d="M470.663,647.987H204.337a.337.337,0,1,1,0-.674H470.663a.337.337,0,0,1,0,.674Z" transform="translate(-204 -513.979)" fill="#ccc"/>
    <path id="Path_15196" data-name="Path 15196" d="M910.58,454.574h0a3.829,3.829,0,1,1,3.509-4.124A3.829,3.829,0,0,1,910.58,454.574Zm-.047-.587h0a3.24,3.24,0,1,0-3.49-2.969A3.24,3.24,0,0,0,910.532,453.987Z" transform="translate(-669.635 -380.966)" fill="#f2f2f2"/>
    <circle id="Ellipse_988" data-name="Ellipse 988" cx="2.356" cy="2.356" r="2.356" transform="translate(251.773 59.096)" fill="#f2f2f2"/>
    <circle id="Ellipse_989" data-name="Ellipse 989" cx="1.238" cy="1.238" r="1.238" transform="translate(264.474 52.833)" fill="#f2f2f2"/>
    <path id="Path_15197" data-name="Path 15197" d="M601.869,386.529a3.829,3.829,0,1,1-1.165,5.288h0A3.833,3.833,0,0,1,601.869,386.529Zm3.806,5.956a3.24,3.24,0,1,0-4.475-.985h0a3.244,3.244,0,0,0,4.475.985Z" transform="translate(-466.568 -340.466)" fill="#f2f2f2"/>
    <circle id="Ellipse_990" data-name="Ellipse 990" cx="2.356" cy="2.356" r="2.356" transform="translate(133.515 31.174)" fill="#f2f2f2"/>
    <circle id="Ellipse_991" data-name="Ellipse 991" cx="1.238" cy="1.238" r="1.238" transform="translate(133.531 18.683)" fill="#f2f2f2"/>
    <path id="Path_15198" data-name="Path 15198" d="M294.765,504.629a3.829,3.829,0,1,1,5.32,1.011h0A3.833,3.833,0,0,1,294.765,504.629Zm5.844-3.977a3.24,3.24,0,1,0-.856,4.5h0a3.244,3.244,0,0,0,.856-4.5Z" transform="translate(-263.726 -415.3)" fill="#f2f2f2"/>
    <circle id="Ellipse_992" data-name="Ellipse 992" cx="2.356" cy="2.356" r="2.356" transform="translate(16.094 86.761)" fill="#f2f2f2"/>
    <circle id="Ellipse_993" data-name="Ellipse 993" cx="1.238" cy="1.238" r="1.238" transform="translate(3.549 89.375)" fill="#f2f2f2"/>
  </g>
</svg>
