<svg xmlns="http://www.w3.org/2000/svg" width="21.899" height="24.002" viewBox="0 0 21.899 24.002">
  <path id="bell" d="M23.714,20.047H4.076a1.314,1.314,0,0,1-1.091-.764,1.036,1.036,0,0,1,.436-1.2S6.258,16.01,6.258,9.137a7.637,7.637,0,1,1,15.274,0c0,6.873,2.727,8.946,2.837,8.946a1.09,1.09,0,0,1,.436,1.2A1.186,1.186,0,0,1,23.714,20.047ZM6.367,17.865H21.314A17.9,17.9,0,0,1,19.35,9.137a5.455,5.455,0,1,0-10.91,0A16.544,16.544,0,0,1,6.367,17.865ZM13.9,25.5a3.079,3.079,0,0,1-1.636-.436,3.169,3.169,0,0,1-1.2-1.2,1.123,1.123,0,0,1,1.964-1.091c.109.109.218.327.436.436a1.1,1.1,0,0,0,1.527-.436,1.123,1.123,0,0,1,1.964,1.091A3.943,3.943,0,0,1,13.9,25.5Z" transform="translate(-2.946 -1.5)" fill="#222b45"/>
</svg>
