<svg xmlns="http://www.w3.org/2000/svg" width="38" height="38" viewBox="0 0 38 38">
  <rect id="Rectangle_6667" data-name="Rectangle 6667" width="38" height="38" rx="19" fill="#f5f7fb"/>
  <path id="Subtraction_7" data-name="Subtraction 7" d="M19,23H5a4.005,4.005,0,0,1-4-4V5A4.005,4.005,0,0,1,5,1H19a4.005,4.005,0,0,1,4,4V19A4.005,4.005,0,0,1,19,23ZM5.246,10.849A.949.949,0,0,0,4.6,12.5l3.344,3.345a.939.939,0,0,0,.671.278h.017a.957.957,0,0,0,.678-.3l5.047-6.308A.949.949,0,0,0,13.684,7.9a.94.94,0,0,0-.677.285.257.257,0,0,0-.02.021l-.006.007L8.592,13.8,5.945,11.156A.952.952,0,0,0,5.246,10.849Zm7.789,2.339-1.193,1.49,1.165,1.163a.942.942,0,0,0,.67.277h.017a.958.958,0,0,0,.677-.3l5.047-6.309a.949.949,0,1,0-1.38-1.3L13.648,13.8Z" transform="translate(7 7)" fill="#41d8b6"/>
</svg>
