<svg xmlns="http://www.w3.org/2000/svg" width="38" height="38" viewBox="0 0 38 38">
  <rect id="Rectangle_6668" data-name="Rectangle 6668" width="38" height="38" rx="19" fill="#f5f7fb"/>
  <path id="Path_15059" data-name="Path 15059" d="M14.876,2.672a3.309,3.309,0,0,0-5.752,0L.414,18.19a3.178,3.178,0,0,0,.029,3.189A3.264,3.264,0,0,0,3.29,23H20.71a3.264,3.264,0,0,0,2.847-1.621,3.178,3.178,0,0,0,.029-3.189ZM12,19a1,1,0,1,1,1-1A1,1,0,0,1,12,19Zm1-5a1,1,0,0,1-2,0V8a1,1,0,0,1,2,0Z" transform="translate(7 5)" fill="#fbce5d"/>
</svg>
