<svg xmlns="http://www.w3.org/2000/svg" width="38" height="38" viewBox="0 0 38 38">
  <rect id="Rectangle_6673" data-name="Rectangle 6673" width="38" height="38" rx="19" fill="#f5f7fb"/>
  <path id="Subtraction_11" data-name="Subtraction 11" d="M11,24.9a3.972,3.972,0,0,1-2.828-1.172l-9.9-9.9a4,4,0,0,1,0-5.656l9.9-9.9a4,4,0,0,1,5.656,0l9.9,9.9a4,4,0,0,1,0,5.656l-9.9,9.9A3.974,3.974,0,0,1,11,24.9ZM11,9a1,1,0,0,0-1,1v6a1,1,0,1,0,2,0V10A1,1,0,0,0,11,9Zm0-4a1,1,0,1,0,1,1A1,1,0,0,0,11,5Z" transform="translate(8 8)" fill="#6135fb"/>
</svg>
