<svg id="Group_8017" data-name="Group 8017" xmlns="http://www.w3.org/2000/svg" width="42" height="42" viewBox="0 0 42 42">
  <g id="Rectangle_5845" data-name="Rectangle 5845" fill="#6135fb" stroke="#6135fb" stroke-width="1">
    <path d="M0,0H32A10,10,0,0,1,42,10V32A10,10,0,0,1,32,42H0a0,0,0,0,1,0,0V0A0,0,0,0,1,0,0Z" stroke="none"/>
    <path d="M1,.5H32A9.5,9.5,0,0,1,41.5,10V32A9.5,9.5,0,0,1,32,41.5H1A.5.5,0,0,1,.5,41V1A.5.5,0,0,1,1,.5Z" fill="none"/>
  </g>
  <g id="_27_Icon_chevron-down" data-name="27) Icon/chevron-down" transform="translate(16.5 16.5)">
    <g id="Group_7262" data-name="Group 7262">
      <line id="Line_296" data-name="Line 296" x2="9" transform="translate(0 4.5)" fill="none" stroke="#fff" stroke-linecap="round" stroke-width="2"/>
      <line id="Line_297" data-name="Line 297" x2="9" transform="translate(4.5) rotate(90)" fill="none" stroke="#fff" stroke-linecap="round" stroke-width="2"/>
    </g>
  </g>
</svg>
