<svg xmlns="http://www.w3.org/2000/svg" xmlns:xlink="http://www.w3.org/1999/xlink" width="44" height="44" viewBox="0 0 44 44"><defs><filter id="a" x="0" y="0" width="44" height="44" filterUnits="userSpaceOnUse"><feOffset dy="0.5" input="SourceAlpha"/><feGaussianBlur stdDeviation="1" result="b"/><feFlood flood-color="#e7ecf5"/><feComposite operator="in" in2="b"/><feComposite in="SourceGraphic"/></filter></defs><g transform="translate(0 -0.5)"><g transform="matrix(1, 0, 0, 1, 0, 0.5)" filter="url(#a)"><path d="M19,0A19,19,0,1,1,0,19,19,19,0,0,1,19,0Z" transform="translate(3 40.5) rotate(-90)" fill="#d90b0b"/></g><g transform="translate(31.932 21.989) rotate(135)"><path d="M5.63,7.012.321,1.7A.952.952,0,0,1,.421.2,1.052,1.052,0,0,1,1.774.3L7.734,6.311a.952.952,0,0,1,0,1.4L1.774,13.724a1.052,1.052,0,0,1-1.352.1.952.952,0,0,1-.1-1.5Z" transform="translate(6.011)" fill="#fff"/><path d="M5.63,7.012.321,1.7A.952.952,0,0,1,.421.2,1.052,1.052,0,0,1,1.774.3L7.734,6.311a.952.952,0,0,1,0,1.4L1.774,13.724a1.052,1.052,0,0,1-1.352.1.952.952,0,0,1-.1-1.5Z" fill="#fff"/></g></g></svg>