<svg xmlns="http://www.w3.org/2000/svg" width="18" height="15.513" viewBox="0 0 18 15.513">
  <path id="Union_37" data-name="Union 37" d="M3.645,15.514a.859.859,0,0,1-.811-.867.821.821,0,0,1,.811-.8h4.57V4.459A2.293,2.293,0,0,1,6.9,3.14H5.121a.838.838,0,0,1,0-1.668H6.9a2.307,2.307,0,0,1,4.3,0h1.776a.787.787,0,0,1,.746.834.8.8,0,0,1-.746.834H11.2A2.292,2.292,0,0,1,9.883,4.459v9.386h4.564a.888.888,0,0,1,.844.8.825.825,0,0,1-.844.867ZM8.163,2.306a.883.883,0,1,0,.886-.882A.885.885,0,0,0,8.163,2.306Zm6.192,10.212a4.775,4.775,0,0,1-3.322-1.337.763.763,0,0,1-.233-.547v-.047a.754.754,0,0,1,.073-.325l2.842-6a.759.759,0,0,1,1.371,0l2.842,6a.762.762,0,0,1-.151.863A4.765,4.765,0,0,1,14.4,12.518ZM12.48,10.412A3.274,3.274,0,0,0,14.355,11H14.4a3.274,3.274,0,0,0,1.911-.614L14.4,6.359ZM3.556,12.518A4.775,4.775,0,0,1,.233,11.181.763.763,0,0,1,0,10.634v-.047a.754.754,0,0,1,.073-.325l2.842-6a.758.758,0,0,1,1.37,0l2.842,6a.76.76,0,0,1-.15.863A4.765,4.765,0,0,1,3.6,12.518ZM1.681,10.412A3.273,3.273,0,0,0,3.555,11H3.6a3.274,3.274,0,0,0,1.912-.614L3.6,6.359Z" transform="translate(0 -0.001)" fill="#3f465d"/>
</svg>
