<svg xmlns="http://www.w3.org/2000/svg" width="18" height="18" viewBox="0 0 18 18">
  <path id="Union_49" data-name="Union 49" d="M6731.649,16852.1a3.029,3.029,0,0,1-.9-2.154v-.314a.877.877,0,1,1,1.741,0v.314a1.319,1.319,0,0,0,2.251.93,1.293,1.293,0,0,0,.387-.93v-6.152a2.929,2.929,0,0,0-1.511,1.281l-.009.016a.893.893,0,0,1-1.477,0l-.012-.016a2.82,2.82,0,0,0-2.371-1.447,2.866,2.866,0,0,0-1.424.494l-.017.014a.872.872,0,0,1-.44.119.883.883,0,0,1-.494-.152.862.862,0,0,1-.362-.859,9.235,9.235,0,0,1,8.12-7.537.885.885,0,0,1,1.733,0,9.237,9.237,0,0,1,8.084,7.334h0l.033.2a.863.863,0,0,1-.362.859.885.885,0,0,1-.495.152.862.862,0,0,1-.44-.119l-.017-.014a2.879,2.879,0,0,0-1.424-.494,2.819,2.819,0,0,0-2.371,1.447l0,.008a.87.87,0,0,1-1.494,0,2.91,2.91,0,0,0-1.511-1.289v6.152a3.064,3.064,0,0,1-3.062,3.055A3.021,3.021,0,0,1,6731.649,16852.1Zm2.079-9.549a4.293,4.293,0,0,1,4.544,0,2.991,2.991,0,1,0-4.544,0Zm6.3-.027a4.364,4.364,0,0,1,2.231-.625,3.648,3.648,0,0,1,.547.039,7.534,7.534,0,0,0-4.293-4.09A9.363,9.363,0,0,1,6740.025,16842.523Zm-8.047,0a9.33,9.33,0,0,1,1.515-4.676,7.535,7.535,0,0,0-4.293,4.09,3.648,3.648,0,0,1,.547-.039A4.364,4.364,0,0,1,6731.978,16842.523Z" transform="translate(-6727.001 -16835)" fill="#3f465d"/>
</svg>
