<svg xmlns="http://www.w3.org/2000/svg" width="32.838" height="29.572" viewBox="0 0 32.838 29.572">
  <g id="upload-cloud-line" transform="translate(-1.6 -2.678)">
    <path id="Path_12127" data-name="Path 12127" d="M30.31,13v-.32a10.26,10.26,0,0,0-10.45-10,10.47,10.47,0,0,0-9.6,6.1A9.74,9.74,0,0,0,1.6,18.4a9.62,9.62,0,0,0,2.835,6.8A11.638,11.638,0,0,0,11.25,28H15V26H11.25c-4.01-.217-7.725-3.585-7.791-7.6S7,11.088,11,10.74h.67l.23-.63a8.43,8.43,0,0,1,8-5.4,8.26,8.26,0,0,1,8.45,8,7.751,7.751,0,0,1,0,.8l-.08.72.65.3A6,6,0,0,1,26.38,26H21v2h5.38a8,8,0,0,0,3.93-15Z" fill="rgba(48,46,56,0.6)"/>
    <path id="Path_12128" data-name="Path 12128" d="M22.28,21.85A1,1,0,0,0,23,20.14l-5-5-5,5a1,1,0,0,0,1.41,1.41L17,19V31.25a1,1,0,0,0,2,0V19l2.57,2.57a1,1,0,0,0,.71.28Z" fill="rgba(48,46,56,0.6)"/>
  </g>
</svg>
