<svg xmlns="http://www.w3.org/2000/svg" width="24" height="24" viewBox="0 0 24 24">
  <g id="Show" transform="translate(-579 -789)">
    <rect id="Rectangle_6873" data-name="Rectangle 6873" width="24" height="24" transform="translate(579 789)" fill="rgba(255,255,255,0)"/>
    <path id="Path_15097" data-name="Path 15097" d="M7908.277,17830.3a1.3,1.3,0,0,1,0-1.607c.86-1.1,4.054-4.693,8.722-4.693s7.862,3.594,8.722,4.693a1.3,1.3,0,0,1,0,1.607c-.86,1.1-4.053,4.7-8.722,4.7S7909.137,17831.4,7908.277,17830.3Zm1.475-.8c.983,1.186,3.645,3.8,7.247,3.8s6.265-2.619,7.248-3.8c-.983-1.187-3.645-3.807-7.248-3.807S7910.734,17828.313,7909.751,17829.5Zm4.792,0a2.457,2.457,0,1,1,2.456,2.535A2.5,2.5,0,0,1,7914.543,17829.5Z" transform="translate(-7325.998 -17028.719)" fill="#222b45"/>
  </g>
</svg>
